<?xml version="1.0" standalone="no"?>
<!DOCTYPE svg PUBLIC "-//W3C//DTD SVG 20010904//EN"
 "http://www.w3.org/TR/2001/REC-SVG-20010904/DTD/svg10.dtd">
<svg version="1.0" xmlns="http://www.w3.org/2000/svg"
 width="538.000000pt" height="80.000000pt" viewBox="0 0 538.000000 80.000000"
 preserveAspectRatio="xMidYMid meet">

<g transform="translate(0.000000,80.000000) scale(0.100000,-0.100000)"
fill="#000000" stroke="none">
<path d="M0 400 l0 -400 660 0 660 0 0 400 0 400 -660 0 -660 0 0 -400z m560
90 c6 0 10 26 10 57 0 43 3 54 11 46 8 -8 14 -86 17 -229 l5 -217 -58 8 c-32
4 -64 9 -71 12 -15 5 -48 58 -59 93 -7 22 -5 23 28 17 34 -5 36 -4 44 29 l8
34 36 -30 c31 -25 38 -27 43 -14 13 33 5 85 -19 130 -18 34 -25 62 -25 104 0
75 14 87 18 16 2 -31 7 -56 12 -56z m182 98 c10 -8 18 -36 22 -74 5 -53 3 -64
-14 -79 -18 -16 -20 -31 -20 -152 0 -115 -2 -133 -16 -133 -14 0 -15 14 -9
124 7 117 6 126 -14 151 -18 23 -20 36 -14 89 6 62 16 86 37 86 7 0 19 -6 28
-12z m-402 -202 c0 -7 -6 -19 -13 -25 -11 -8 -18 -7 -31 7 -9 10 -13 22 -9 25
12 13 53 7 53 -7z m693 7 c4 -3 0 -15 -9 -25 -13 -14 -20 -15 -31 -7 -21 18
-15 39 10 39 13 0 27 -3 30 -7z m-583 -23 c0 -5 -4 -10 -10 -10 -5 0 -10 5
-10 10 0 6 5 10 10 10 6 0 10 -4 10 -10z m440 0 c0 -5 -4 -10 -10 -10 -5 0
-10 5 -10 10 0 6 5 10 10 10 6 0 10 -4 10 -10z m-13 -93 c39 7 41 -2 13 -57
-22 -44 -38 -55 -91 -63 -36 -5 -37 -4 -43 31 -10 65 -7 79 32 116 l37 37 9
-35 c9 -32 11 -34 43 -29z m-37 -137 c0 -5 -2 -10 -4 -10 -3 0 -8 5 -11 10 -3
6 -1 10 4 10 6 0 11 -4 11 -10z m-304 -25 c4 -8 17 -15 30 -15 27 0 30 -6 10
-25 -10 -10 -16 -11 -25 -2 -8 8 -11 8 -11 0 0 -8 -12 -8 -40 -1 -22 6 -40 16
-40 23 0 17 28 27 33 12 3 -8 7 -6 12 6 9 21 24 22 31 2z m161 -8 c-6 -16 34
-17 45 -2 5 6 8 5 8 -2 0 -9 7 -10 27 -2 33 12 48 -1 39 -35 -4 -17 -13 -26
-27 -26 -11 0 -17 5 -14 10 4 6 11 7 17 4 6 -4 8 -2 4 4 -3 6 -18 8 -33 6 -53
-10 -154 -11 -159 -2 -10 16 15 35 42 32 15 -1 28 4 31 12 3 8 10 14 15 14 6
0 8 -6 5 -13z m163 -13 c0 -8 -7 -14 -15 -14 -17 0 -18 2 -9 24 7 18 24 12 24
-10z"/>
</g>
</svg>
