<?xml version="1.0" encoding="UTF-8"?>
<svg version="1.1" xmlns="http://www.w3.org/2000/svg" width="538" height="80">
<path d="M0 0 C1.0828125 0.4021875 1.0828125 0.4021875 2.1875 0.8125 C3.42963914 5.08577112 2.87896302 7.52791119 1.25 11.625 C0.86972656 12.60082031 0.48945313 13.57664062 0.09765625 14.58203125 C-0.20269531 15.31808594 -0.50304687 16.05414062 -0.8125 16.8125 C0.6725 17.3075 0.6725 17.3075 2.1875 17.8125 C2.1875 18.4725 2.1875 19.1325 2.1875 19.8125 C1.32125 19.8125 0.455 19.8125 -0.4375 19.8125 C-4.79984559 21.10504684 -5.95496659 23.12714709 -8.41796875 26.8046875 C-9.8125 28.8125 -9.8125 28.8125 -11.3828125 30.15234375 C-13.54371798 32.66159192 -13.83300732 35.29208281 -14.5 38.5 C-14.87705078 40.26923828 -14.87705078 40.26923828 -15.26171875 42.07421875 C-15.44347656 42.97785156 -15.62523437 43.88148437 -15.8125 44.8125 C-11.36463047 43.69349483 -11.36463047 43.69349483 -8.0546875 40.67578125 C-7.60351562 39.83402344 -7.15234375 38.99226563 -6.6875 38.125 C-6.18863281 37.22910156 -5.68976563 36.33320312 -5.17578125 35.41015625 C-4.37309777 33.88068772 -3.57622669 32.34810074 -2.79296875 30.80859375 C-0.30489825 26.07596603 2.71250881 22.69896618 7.1875 19.8125 C10.4375 18.8125 10.4375 18.8125 13.1875 18.8125 C16.1875 20.8125 16.1875 20.8125 16.75 23.5 C15.95816638 28.16302023 13.65940468 30.70173906 10.1875 33.8125 C6.75251283 35.6935644 5.19327497 35.8125 1.1875 35.8125 C1.1875 39.1125 1.1875 42.4125 1.1875 45.8125 C5.81516145 45.07207417 8.35466825 44.15019506 11.3125 40.4375 C16.95205614 32.12103454 19.84414795 22.49073448 22.1875 12.8125 C23.5075 12.4825 24.8275 12.1525 26.1875 11.8125 C28.1875 14.8125 28.1875 14.8125 27.9375 17.375 C27.1875 19.8125 27.1875 19.8125 25.1875 21.8125 C28.1575 21.8125 31.1275 21.8125 34.1875 21.8125 C33.81872168 27.46710086 32.03435486 31.44363458 29.3984375 36.43359375 C28.01640927 39.1486105 27.03400482 41.88821063 26.1875 44.8125 C30.90581471 42.567233 32.78257098 39.64293208 34.9375 35.0625 C35.39189453 34.16917969 35.39189453 34.16917969 35.85546875 33.2578125 C37.90724233 29.04483742 38.73953954 25.40998891 39.1875 20.8125 C41.4975 20.8125 43.8075 20.8125 46.1875 20.8125 C47.1875 22.8125 47.1875 22.8125 46.56665039 24.73608398 C46.22625732 25.50251221 45.88586426 26.26894043 45.53515625 27.05859375 C45.17099609 27.89583984 44.80683594 28.73308594 44.43164062 29.59570312 C44.04169922 30.47162109 43.65175781 31.34753906 43.25 32.25 C42.48599488 33.97570772 41.7266654 35.70349515 40.97265625 37.43359375 C40.63113525 38.2011499 40.28961426 38.96870605 39.93774414 39.75952148 C39.01587984 41.91782894 39.01587984 41.91782894 39.1875 44.8125 C43.55759969 43.48140425 45.09489122 42.04261183 47.265625 38.05859375 C47.78640625 37.12208984 48.3071875 36.18558594 48.84375 35.22070312 C49.3696875 34.24037109 49.895625 33.26003906 50.4375 32.25 C51.50430508 30.31070076 52.57196685 28.37187246 53.640625 26.43359375 C54.10629883 25.5717749 54.57197266 24.70995605 55.05175781 23.82202148 C56.1875 21.8125 56.1875 21.8125 57.1875 20.8125 C59.18708364 20.77169217 61.18795254 20.76995644 63.1875 20.8125 C62.5275 22.7925 61.8675 24.7725 61.1875 26.8125 C62.03054688 26.379375 62.87359375 25.94625 63.7421875 25.5 C64.83789062 24.943125 65.93359375 24.38625 67.0625 23.8125 C68.15304687 23.255625 69.24359375 22.69875 70.3671875 22.125 C73.1875 20.8125 73.1875 20.8125 75.1875 20.8125 C74.30693619 25.6189108 71.84483943 29.88651767 69.71484375 34.23632812 C68.0328807 37.74452302 66.72370339 40.94736721 66.1875 44.8125 C69.87789715 43.36326678 71.16188569 41.68076991 73.0625 38.25 C73.57554687 37.35925781 74.08859375 36.46851563 74.6171875 35.55078125 C75.13539063 34.64714844 75.65359375 33.74351563 76.1875 32.8125 C80.15225432 26.18745715 83.43234998 21.33010107 91.125 18.875 C95.2081055 18.79167132 97.5520751 19.99478755 101.1875 21.8125 C101.1875 23.1325 101.1875 24.4525 101.1875 25.8125 C100.5275 25.8125 99.8675 25.8125 99.1875 25.8125 C98.1975 24.3275 98.1975 24.3275 97.1875 22.8125 C92.39660534 23.235226 89.40059308 25.39700736 86.1875 28.8125 C82.41897588 33.63176542 80.5691305 37.70641205 80.1875 43.8125 C82.48531554 43.92885105 82.48531554 43.92885105 85.1875 42.8125 C89.22589574 38.57324165 92.13754892 33.40106228 94.9140625 28.28125 C95.54441406 27.55421875 95.54441406 27.55421875 96.1875 26.8125 C97.5075 26.8125 98.8275 26.8125 100.1875 26.8125 C100.1875 32.4225 100.1875 38.0325 100.1875 43.8125 C101.095 42.41 102.0025 41.0075 102.9375 39.5625 C105.10660249 36.29856616 107.23413739 33.42509 110.1875 30.8125 C109.603656 34.73761991 108.42239976 37.54762799 106.375 40.9375 C105.87355469 41.78570312 105.37210938 42.63390625 104.85546875 43.5078125 C103.15684952 45.85485078 101.64067862 47.28983741 99.1875 48.8125 C98.5275 48.8125 97.8675 48.8125 97.1875 48.8125 C97.07664062 49.54726563 96.96578125 50.28203125 96.8515625 51.0390625 C94.82216067 59.51479956 87.36812855 66.93251144 80.375 71.75 C76.02937727 73.19854091 71.72196479 73.60856783 67.1875 72.8125 C64.68016126 70.90293738 64.25076788 70.16838184 63.6875 67 C64.35557 62.74105377 65.91370738 60.46303921 69.1875 57.8125 C76.46806705 53.34636111 83.91470654 50.77184582 92.1875 48.8125 C92.5175 45.1825 92.8475 41.5525 93.1875 37.8125 C92.23875 39.235625 91.29 40.65875 90.3125 42.125 C88.60416667 44.6875 86.89583333 47.25 85.1875 49.8125 C83.72383658 49.41496179 82.2666065 48.99368616 80.8125 48.5625 C80.00039063 48.33046875 79.18828125 48.0984375 78.3515625 47.859375 C75.72964546 46.5910108 75.19367682 45.48826692 74.1875 42.8125 C73.465625 43.616875 72.74375 44.42125 72 45.25 C69.15108218 47.84568068 67.99434197 48.8125 64.1875 48.8125 C61.8125 47.9375 61.8125 47.9375 60.1875 45.8125 C59.46096742 38.91756337 62.58272027 33.43914881 66.1875 27.8125 C58.90184652 31.98140254 55.20327629 37.87339757 50.97265625 44.86328125 C49.1875 47.8125 49.1875 47.8125 48.1875 48.8125 C46.22822414 48.82712146 44.26788599 48.74926314 42.3125 48.625 C41.24257813 48.56957031 40.17265625 48.51414063 39.0703125 48.45703125 C36.1875 47.8125 36.1875 47.8125 34.3046875 45.76171875 C33.93601562 45.11847656 33.56734375 44.47523437 33.1875 43.8125 C32.61 44.451875 32.0325 45.09125 31.4375 45.75 C28.19926471 48.71838235 28.19926471 48.71838235 25.1875 48.8125 C22.9375 47.8125 22.9375 47.8125 21.1875 45.8125 C20.10525967 39.92030267 22.3250918 35.9712571 25.09375 30.94921875 C26.33938525 28.91584575 26.33938525 28.91584575 26.1875 26.8125 C24.8675 26.4825 23.5475 26.1525 22.1875 25.8125 C21.65640625 26.90949219 21.1253125 28.00648437 20.578125 29.13671875 C19.86490839 30.59130526 19.15134852 32.0457235 18.4375 33.5 C18.08945312 34.22123047 17.74140625 34.94246094 17.3828125 35.68554688 C12.60417758 45.37555657 12.60417758 45.37555657 7.875 48.1875 C4.24642647 49.03135431 1.78123478 48.79260949 -1.8125 47.8125 C-4.25 45.25 -4.25 45.25 -5.8125 42.8125 C-6.534375 43.616875 -7.25625 44.42125 -8 45.25 C-10.86320361 47.85869662 -12.00793836 48.71494714 -15.8125 48.8125 C-18 48.125 -18 48.125 -19.8125 46.8125 C-20.4725 45.4925 -21.1325 44.1725 -21.8125 42.8125 C-24.1225 44.7925 -26.4325 46.7725 -28.8125 48.8125 C-31.1875 48.0625 -31.1875 48.0625 -33.8125 46.8125 C-34.4725 45.4925 -35.1325 44.1725 -35.8125 42.8125 C-38.1225 44.7925 -40.4325 46.7725 -42.8125 48.8125 C-46.46566671 47.56273244 -47.59315836 47.14151247 -49.8125 43.8125 C-50.988125 44.7715625 -50.988125 44.7715625 -52.1875 45.75 C-56.26517175 48.95388495 -58.60029014 49.2542127 -63.8125 48.8125 C-66.75 47.375 -66.75 47.375 -68.8125 44.8125 C-70.34235792 38.70550619 -68.31905888 33.45018747 -65.359375 28.12109375 C-62.60197258 24.00587954 -59.70400819 20.38870634 -54.65625 19.3828125 C-52.5 19.3125 -52.5 19.3125 -48.8125 19.8125 C-46.8125 21.8125 -46.8125 21.8125 -46.5 24.75 C-46.8125 27.8125 -46.8125 27.8125 -48.125 29.6875 C-49.8125 30.8125 -49.8125 30.8125 -52.8125 30.8125 C-52.461875 30.049375 -52.11125 29.28625 -51.75 28.5 C-50.48889116 25.76490621 -50.48889116 25.76490621 -51.8125 22.8125 C-57.28919261 25.55084631 -59.66578506 29.24604275 -62.125 34.75 C-62.94240639 38.39117392 -62.53954632 41.17726842 -61.8125 44.8125 C-58.16054762 45.23714563 -56.36630696 45.20016487 -53.3125 43.0625 C-50.0962745 39.47517156 -48.34904404 34.93373946 -46.2890625 30.62890625 C-44.48488397 27.18760275 -42.80284585 25.25199267 -39.8125 22.8125 C-39.214375 22.235 -38.61625 21.6575 -38 21.0625 C-34.73372988 19.19605993 -31.5615259 18.67887135 -27.8125 18.8125 C-24.8125 20.0625 -24.8125 20.0625 -22.8125 21.8125 C-22.8125 22.8025 -22.8125 23.7925 -22.8125 24.8125 C-23.369375 24.461875 -23.92625 24.11125 -24.5 23.75 C-27.48206504 22.54105471 -28.78000367 22.77701345 -31.8125 23.8125 C-35.86259317 26.62343423 -38.13071177 29.48361048 -40.5625 33.75 C-41.15546875 34.76964844 -41.7484375 35.78929687 -42.359375 36.83984375 C-43.69701506 39.57625257 -44.3928913 41.81450626 -44.8125 44.8125 C-40.4581927 43.46811696 -38.72381763 41.85071261 -36.25 38.0625 C-35.65832031 37.17175781 -35.06664062 36.28101563 -34.45703125 35.36328125 C-33.64298828 34.10064453 -33.64298828 34.10064453 -32.8125 32.8125 C-32.02247655 31.62390616 -31.23116358 30.4361663 -30.4375 29.25 C-29.90125 28.445625 -29.365 27.64125 -28.8125 26.8125 C-27.8125 25.8125 -27.8125 25.8125 -24.75 25.75 C-23.2959375 25.7809375 -23.2959375 25.7809375 -21.8125 25.8125 C-22.9765591 28.91665761 -24.33018869 31.82328475 -25.875 34.75 C-27.57717279 38.08474001 -28.43667312 41.05423116 -28.8125 44.8125 C-21.51016646 38.32153685 -18.94299236 29.87094599 -15.8125 20.8125 C-17.1325 20.4825 -18.4525 20.1525 -19.8125 19.8125 C-19.8125 19.1525 -19.8125 18.4925 -19.8125 17.8125 C-18.88566406 17.76609375 -17.95882812 17.7196875 -17.00390625 17.671875 C-13.62628419 17.13552971 -13.62628419 17.13552971 -12.08984375 14.265625 C-11.64769531 13.20859375 -11.20554687 12.1515625 -10.75 11.0625 C-5.51844784 -0.36789652 -5.51844784 -0.36789652 0 0 Z M-0.8125 3.8125 C-3.82929014 8.34919968 -6.35217505 12.50222746 -7.8125 17.8125 C-6.8225 17.8125 -5.8325 17.8125 -4.8125 17.8125 C-3.94645466 16.04744565 -3.09501358 14.27521926 -2.25 12.5 C-1.77433594 11.51386719 -1.29867187 10.52773437 -0.80859375 9.51171875 C0.52160703 6.77296471 0.52160703 6.77296471 -0.8125 3.8125 Z M-8.8125 19.8125 C-10.5661564 22.15192344 -10.5661564 22.15192344 -11.8125 24.8125 C-11.4825 25.4725 -11.1525 26.1325 -10.8125 26.8125 C-9.4925 24.5025 -8.1725 22.1925 -6.8125 19.8125 C-7.4725 19.8125 -8.1325 19.8125 -8.8125 19.8125 Z M8 24.5625 C7.44957031 25.07296875 6.89914062 25.5834375 6.33203125 26.109375 C4.9306946 27.78219504 4.9306946 27.78219504 5.51171875 30.015625 C5.73472656 30.60859375 5.95773437 31.2015625 6.1875 31.8125 C9.04845641 30.5300023 11.30115918 29.35906011 13.1875 26.8125 C13.43819913 24.18679296 13.43819913 24.18679296 13.1875 21.8125 C10.50926409 21.8125 9.90506915 22.73435764 8 24.5625 Z M59.1875 26.8125 C59.1875 29.8125 59.1875 29.8125 59.1875 29.8125 Z M57.1875 29.8125 C58.1875 31.8125 58.1875 31.8125 58.1875 31.8125 Z M3.1875 30.8125 C4.1875 32.8125 4.1875 32.8125 4.1875 32.8125 Z M80.875 55.5625 C80.21048828 55.81515625 79.54597656 56.0678125 78.86132812 56.328125 C74.75600426 57.95238766 71.38868664 59.67171311 68.1875 62.8125 C67.29694264 66.45432335 67.29694264 66.45432335 67.1875 69.8125 C70.58580231 71.08686337 72.76680581 70.85321817 76 69.4375 C82.6220692 65.83117389 87.71076132 59.90497894 90.1875 52.8125 C86.86626106 52.8125 83.92562562 54.35271901 80.875 55.5625 Z " fill="#FAFAFA" transform="translate(372.8125,4.1875)"/>
<path d="M0 0 C2.375 0.3125 2.375 0.3125 5 1 C8.47004214 6.2050632 8.72393801 12.85246085 8 19 C7.484375 19.66 6.96875 20.32 6.4375 21 C4.26768299 24.01887584 5.1428996 26.61933067 5.67578125 30.171875 C5.78277344 30.77515625 5.88976562 31.3784375 6 32 C6.61875 31.505 7.2375 31.01 7.875 30.5 C10 29 10 29 12 29 C12.495 32.465 12.495 32.465 13 36 C15.64 35.67 18.28 35.34 21 35 C20.67 36.98 20.34 38.96 20 41 C23.96 40.34 27.92 39.68 32 39 C31.9071875 40.8871875 31.9071875 40.8871875 31.8125 42.8125 C31.72774237 46.11608878 31.72774237 46.11608878 33.5 48.8125 C33.995 49.204375 34.49 49.59625 35 50 C35 50.99 35 51.98 35 53 C31.535 53.495 31.535 53.495 28 54 C28 55.32 28 56.64 28 58 C26.47935206 58.45894807 24.95847052 58.91712214 23.4375 59.375 C22.59058594 59.63023438 21.74367188 59.88546875 20.87109375 60.1484375 C19.92363281 60.42945313 18.97617188 60.71046875 18 61 C16.93789307 61.34063477 15.87578613 61.68126953 14.78149414 62.03222656 C8.96042953 63.52197413 3.16492614 63.37193616 -2.80322266 63.37060547 C-4.96729961 63.37493458 -7.12925745 63.41118959 -9.29296875 63.44921875 C-20.27603504 63.53604265 -29.57333269 61.47555577 -40 58 C-40 56.68 -40 55.36 -40 54 C-41.98 53.67 -43.96 53.34 -46 53 C-46 49 -46 49 -44 47 C-43.75787127 45.01871492 -43.75787127 45.01871492 -43.875 42.875 C-43.936875 40.956875 -43.936875 40.956875 -44 39 C-38.375 36.875 -38.375 36.875 -35 38 C-35 38.66 -35 39.32 -35 40 C-34.01 40 -33.02 40 -32 40 C-32.33 38.35 -32.66 36.7 -33 35 C-30.36 35.33 -27.72 35.66 -25 36 C-24.67 33.69 -24.34 31.38 -24 29 C-21.50638429 30.20381448 -19.31856917 31.45428722 -17 33 C-15.4452331 29.89046621 -15.71355563 27.43733239 -16 24 C-16.66128906 23.09507813 -17.32257812 22.19015625 -18.00390625 21.2578125 C-20.36617101 17.40237452 -20.46995911 14.49034225 -20.25 10.125 C-20.23195313 9.43664063 -20.21390625 8.74828125 -20.1953125 8.0390625 C-20.14863748 6.3587619 -20.07690939 4.67918837 -20 3 C-16.91566208 2.0983142 -14.14658179 1.86531951 -10.9375 1.875 C-10.08027344 1.87242188 -9.22304688 1.86984375 -8.33984375 1.8671875 C-6 2 -6 2 -3 3 C-2.01 2.67 -1.02 2.34 0 2 C0 1.34 0 0.68 0 0 Z M-17 6 C-17 8.31 -17 10.62 -17 13 C-16.67 13 -16.34 13 -16 13 C-16 10.69 -16 8.38 -16 6 C-16.33 6 -16.66 6 -17 6 Z M-6 18 C-10.53469645 23.22177166 -10.47176164 27.28852311 -10 34 C-9.92136719 35.24007812 -9.84273437 36.48015625 -9.76171875 37.7578125 C-9.53051587 41.17409382 -9.27539768 44.58703589 -9 48 C-7.02 48.33 -5.04 48.66 -3 49 C-1.49221996 44.47665989 -1.46015624 39.92681681 -1.1875 35.1875 C-1.11080078 34.20201172 -1.03410156 33.21652344 -0.95507812 32.20117188 C-0.55866666 25.94249518 -0.55866666 25.94249518 -2.92578125 20.30078125 C-3.61027344 19.54152344 -4.29476562 18.78226563 -5 18 C-5.33 18 -5.66 18 -6 18 Z " fill="#2C7B87" transform="translate(69,17)"/>
<path d="M0 0 C2.3125 0.8125 2.3125 0.8125 3.3125 1.8125 C2.95331102 7.72628997 1.67085365 12.03591915 -1.1875 17.1875 C-1.53627197 17.83307861 -1.88504395 18.47865723 -2.24438477 19.14379883 C-5.15585698 24.32053688 -8.68145207 28.56978687 -12.90234375 32.76171875 C-15.73408571 36.014814 -15.81978337 38.87549762 -15.75 43.0625 C-15.729375 44.3 -15.70875 45.5375 -15.6875 46.8125 C-13.30329495 46.75614673 -13.30329495 46.75614673 -10.6875 45.8125 C-8.62408111 43.25308779 -8.62408111 43.25308779 -7 40.0625 C-6.41863281 39.01578125 -5.83726562 37.9690625 -5.23828125 36.890625 C-2.72072506 31.89356132 -1.42478381 28.46089802 -1.6875 22.8125 C0.9525 22.8125 3.5925 22.8125 6.3125 22.8125 C5.52155735 27.95362724 3.48171253 32.52734752 1.484375 37.28515625 C0.04592472 40.77551354 -1.11256788 44.07544124 -1.6875 47.8125 C2.342664 45.72557297 4.28647335 43.8213679 6.5 39.875 C6.98855469 39.02035156 7.47710937 38.16570313 7.98046875 37.28515625 C8.42003906 36.46917969 8.85960937 35.65320312 9.3125 34.8125 C9.89064453 33.79736328 9.89064453 33.79736328 10.48046875 32.76171875 C11.42976635 30.53777742 11.51765595 28.96717865 11.4375 26.5625 C11.39625 25.325 11.355 24.0875 11.3125 22.8125 C13.6225 22.4825 15.9325 22.1525 18.3125 21.8125 C19.60875529 25.45065652 18.98101395 27.83812765 17.9375 31.5 C16.55590293 36.64155988 15.75417369 41.51241566 15.3125 46.8125 C17.28535023 46.48876966 17.28535023 46.48876966 19.3125 45.8125 C20.51088209 43.48395537 20.51088209 43.48395537 21.3125 40.8125 C21.869375 39.9153125 21.869375 39.9153125 22.4375 39 C23.5375893 36.24977674 23.26718095 33.83405724 23.20703125 30.9140625 C23.39264768 27.2154833 24.36847036 24.9877484 26.3125 21.8125 C29.5 20.875 29.5 20.875 32.3125 20.8125 C30.37745236 31.3673053 27.1151021 42.92024985 18.3125 49.8125 C14.5625 51 14.5625 51 11.3125 50.8125 C8.6645265 49.04718433 8.3355014 47.88150421 7.3125 44.8125 C6.61125 45.6375 5.91 46.4625 5.1875 47.3125 C2.3125 49.8125 2.3125 49.8125 -0.75 50.3125 C-3.90788995 49.77498682 -5.35856405 48.96228703 -7.6875 46.8125 C-8.491875 47.5240625 -8.491875 47.5240625 -9.3125 48.25 C-12.21284996 50.15812497 -14.2243575 50.6682024 -17.6875 50.8125 C-20.85498634 49.10034522 -21.53328536 48.27514391 -22.6875 44.8125 C-23.925 46.0809375 -23.925 46.0809375 -25.1875 47.375 C-27.17775489 49.06671666 -28.15913304 49.79390931 -30.796875 49.88671875 C-32.77029203 49.58782529 -34.73033562 49.20393288 -36.6875 48.8125 C-37.6775 49.3075 -37.6775 49.3075 -38.6875 49.8125 C-40.5625 50.015625 -40.5625 50.015625 -42.6875 50.0625 C-43.38875 50.08828125 -44.09 50.1140625 -44.8125 50.140625 C-45.43125 50.03234375 -46.05 49.9240625 -46.6875 49.8125 C-49.40977926 45.72908111 -49.30314224 42.60515793 -48.6875 37.8125 C-46.7540363 31.52584857 -42.62756727 27.01034042 -37.6875 22.8125 C-34.6042365 21.27086825 -32.07871901 21.51502465 -28.6875 21.8125 C-25.95082492 24.01949603 -25.72633786 25.52953846 -25.25 29 C-26.04786911 35.95285939 -29.00098566 41.62385912 -33.6875 46.8125 C-30.8857633 47.10420908 -30.8857633 47.10420908 -27.6875 45.8125 C-22.84681487 39.57965995 -19.98146203 32.11978532 -17.1875 24.8125 C-7.50029147 -0.52327615 -7.50029147 -0.52327615 0 0 Z M-0.6875 3.8125 C-4.89829149 10.48320405 -9.0771167 17.3319986 -11.6875 24.8125 C-11.3575 25.4725 -11.0275 26.1325 -10.6875 26.8125 C-2.87944114 16.92993214 -2.87944114 16.92993214 -0.05859375 5.51953125 C-0.26613281 4.95621094 -0.47367188 4.39289062 -0.6875 3.8125 Z M-34.0625 25.75 C-39.14516357 29.74352137 -42.16220297 35.5726485 -43.6875 41.8125 C-43.85607483 44.56315232 -43.85607483 44.56315232 -43.6875 46.8125 C-40.63836772 47.82361093 -40.63836772 47.82361093 -37.6875 46.8125 C-37.6875 44.5025 -37.6875 42.1925 -37.6875 39.8125 C-35.6875 39.8125 -33.6875 39.8125 -31.6875 39.8125 C-29.25324762 34.84256806 -28.34134002 31.46644631 -28.6875 25.8125 C-31.60098323 24.48441355 -31.60098323 24.48441355 -34.0625 25.75 Z M-12.6875 26.8125 C-11.6875 28.8125 -11.6875 28.8125 -11.6875 28.8125 Z M8.3125 41.8125 C9.3125 43.8125 9.3125 43.8125 9.3125 43.8125 Z " fill="#F9FAFA" transform="translate(234.6875,2.1875)"/>
<path d="M0 0 C1.98 0 3.96 0 6 0 C6 15.51 6 31.02 6 47 C4.68 47 3.36 47 2 47 C1.67 48.65 1.34 50.3 1 52 C3.475 51.505 3.475 51.505 6 51 C6 52.98 6 54.96 6 57 C5.01 57.495 5.01 57.495 4 58 C4 58.66 4 59.32 4 60 C-1.41094616 61.10742162 -5.43890425 60.73216525 -10.75 59.125 C-11.73806641 58.84462891 -11.73806641 58.84462891 -12.74609375 58.55859375 C-15.51925809 57.7654575 -18.26364005 56.91211998 -21 56 C-21 54.68 -21 53.36 -21 52 C-22.98 51.67 -24.96 51.34 -27 51 C-27 47 -27 47 -25 45 C-24.75787127 43.01871492 -24.75787127 43.01871492 -24.875 40.875 C-24.936875 38.956875 -24.936875 38.956875 -25 37 C-19.375 34.875 -19.375 34.875 -16 36 C-16 36.66 -16 37.32 -16 38 C-15.01 38 -14.02 38 -13 38 C-13.33 36.35 -13.66 34.7 -14 33 C-11.36 33.33 -8.72 33.66 -6 34 C-5.67 31.69 -5.34 29.38 -5 27 C-2.50638429 28.20381448 -0.31856917 29.45428722 2 31 C3.5547669 27.89046621 3.28644437 25.43733239 3 22 C2.34 21.09378906 1.68 20.18757813 1 19.25390625 C-1.45337931 15.26237312 -1.4446167 12.82980755 -1.3125 8.1875 C-1.30283203 7.50751953 -1.29316406 6.82753906 -1.28320312 6.12695312 C-1.16952328 1.16952328 -1.16952328 1.16952328 0 0 Z M2 4 C2 6.31 2 8.62 2 11 C2.33 11 2.66 11 3 11 C3 8.69 3 6.38 3 4 C2.67 4 2.34 4 2 4 Z " fill="#247985" transform="translate(50,19)"/>
<path d="M0 0 C5.40894713 -0.36059648 5.40894713 -0.36059648 7.703125 1.0390625 C9.71070148 4.07461489 9.21722214 7.08407288 8.9375 10.5625 C8.90978516 11.24763672 8.88207031 11.93277344 8.85351562 12.63867188 C8.71484375 14.62890625 8.71484375 14.62890625 8 18 C6.00390625 19.33984375 6.00390625 19.33984375 4 20 C2.69524382 22.60951236 2.88698428 24.52701285 2.90234375 27.4453125 C2.90556641 28.52167969 2.90878906 29.59804688 2.91210938 30.70703125 C2.92048828 31.83496094 2.92886719 32.96289062 2.9375 34.125 C2.94201172 35.26066406 2.94652344 36.39632812 2.95117188 37.56640625 C2.96298385 40.37765638 2.97945493 43.1888023 3 46 C4.6396875 45.938125 4.6396875 45.938125 6.3125 45.875 C10 46 10 46 13 48 C10 50 10 50 8 51 C7.67 51.99 7.34 52.98 7 54 C6.21625 53.938125 5.4325 53.87625 4.625 53.8125 C3.325625 53.9053125 3.325625 53.9053125 2 54 C1.34 54.99 0.68 55.98 0 57 C0.66 57 1.32 57 2 57 C2.33 56.34 2.66 55.68 3 55 C3.66 55 4.32 55 5 55 C5 55.66 5 56.32 5 57 C6.65 57 8.3 57 10 57 C10.33 56.34 10.66 55.68 11 55 C15 59.875 15 59.875 15 61 C8.4 61 1.8 61 -5 61 C-4.01 60.505 -4.01 60.505 -3 60 C-3 59.34 -3 58.68 -3 58 C-3.66 57.67 -4.32 57.34 -5 57 C-3.68 57 -2.36 57 -1 57 C-1.33 55.35 -1.66 53.7 -2 52 C-3.32 52 -4.64 52 -6 52 C-5.67 50.35 -5.34 48.7 -5 47 C-3.68 47 -2.36 47 -1 47 C-1.00523682 45.96705811 -1.01047363 44.93411621 -1.01586914 43.86987305 C-1.03415521 39.98772062 -1.04551709 36.1055719 -1.05493164 32.22338867 C-1.05991846 30.55248369 -1.06671031 28.88158298 -1.07543945 27.21069336 C-1.12185731 18.08821877 -1.12303748 9.07166129 0 0 Z " fill="#267885" transform="translate(57,19)"/>
<path d="M0 0 C1.98 0 3.96 0 6 0 C6 15.51 6 31.02 6 47 C1.71 46.67 -2.58 46.34 -7 46 C-7 45.34 -7 44.68 -7 44 C-7.99 43.67 -8.98 43.34 -10 43 C-12.95940617 39.92677052 -13.52517335 37.17847455 -14 33 C-11.36 33.33 -8.72 33.66 -6 34 C-5.67 31.69 -5.34 29.38 -5 27 C-2.50638429 28.20381448 -0.31856917 29.45428722 2 31 C3.5547669 27.89046621 3.28644437 25.43733239 3 22 C2.34 21.09378906 1.68 20.18757813 1 19.25390625 C-1.45337931 15.26237312 -1.4446167 12.82980755 -1.3125 8.1875 C-1.30283203 7.50751953 -1.29316406 6.82753906 -1.28320312 6.12695312 C-1.16952328 1.16952328 -1.16952328 1.16952328 0 0 Z M2 4 C2 6.31 2 8.62 2 11 C2.33 11 2.66 11 3 11 C3 8.69 3 6.38 3 4 C2.67 4 2.34 4 2 4 Z " fill="#AED5C8" transform="translate(50,19)"/>
<path d="M0 0 C1 1 1 1 1.4375 3.625 C0.82065392 8.38352692 -1.48780699 10.85314149 -5 14 C-8.43498717 15.8810644 -9.99422503 16 -14 16 C-14 19.3 -14 22.6 -14 26 C-9.03739629 25.20598341 -6.74782756 24.19032401 -3.6875 20.125 C-1.8752081 17.51331359 -0.36952819 14.86765057 1 12 C1.66 12 2.32 12 3 12 C2.14863032 17.66912045 -0.39357552 21.61836278 -4 26 C-7.59838588 28.60308766 -9.25081054 29.02539625 -13.6875 28.875 C-17.04098698 27.98917325 -17.97107114 27.65735816 -20 25 C-21.36203458 18.71194034 -19.90091463 13.40488846 -16.56640625 8.046875 C-12.11646903 2.23199445 -7.56140892 -1.98984445 0 0 Z M-5.9453125 3.8984375 C-6.66460937 4.71570313 -7.38390625 5.53296875 -8.125 6.375 C-8.84945313 7.18710937 -9.57390625 7.99921875 -10.3203125 8.8359375 C-12.20438352 10.80674914 -12.20438352 10.80674914 -12 13 C-8.48134855 12.6984013 -6.99242548 11.99394038 -4.1875 9.75 C-1.77107097 7.21297008 -1.77107097 7.21297008 -1.6875 4.1875 C-1.790625 3.465625 -1.89375 2.74375 -2 2 C-4.21446503 1.76718947 -4.21446503 1.76718947 -5.9453125 3.8984375 Z " fill="#FAFAFA" transform="translate(284,24)"/>
<path d="M0 0 C-0.0928125 1.8871875 -0.0928125 1.8871875 -0.1875 3.8125 C-0.27225763 7.11608878 -0.27225763 7.11608878 1.5 9.8125 C1.995 10.204375 2.49 10.59625 3 11 C3 11.99 3 12.98 3 14 C0.69 14.33 -1.62 14.66 -4 15 C-4 16.32 -4 17.64 -4 19 C-6.35346396 20.17673198 -7.8806033 20.16623866 -10.5 20.1875 C-11.2940625 20.20167969 -12.088125 20.21585938 -12.90625 20.23046875 C-15 20 -15 20 -17 18 C-16.67 17.01 -16.34 16.02 -16 15 C-16.66 15 -17.32 15 -18 15 C-18.33 14.01 -18.66 13.02 -19 12 C-18.01 11.67 -17.02 11.34 -16 11 C-16 10.34 -16 9.68 -16 9 C-15.34 9 -14.68 9 -14 9 C-14 8.01 -14 7.02 -14 6 C-13.34 6 -12.68 6 -12 6 C-11.814375 5.38125 -11.62875 4.7625 -11.4375 4.125 C-8.8467787 0.29523808 -4.38428613 0 0 0 Z " fill="#227986" transform="translate(101,56)"/>
<path d="M0 0 C2.97 0.495 2.97 0.495 6 1 C7.73883423 6.21650268 8.4670898 10.48834035 8 16 C7.01 16.66 6.02 17.32 5 18 C4.48853802 20.90613434 4.48853802 20.90613434 4.48828125 24.3203125 C4.43510742 26.20556641 4.43510742 26.20556641 4.38085938 28.12890625 C4.35830078 29.44761719 4.33574219 30.76632813 4.3125 32.125 C4.27933471 33.46487759 4.24484578 34.80472311 4.20898438 36.14453125 C4.12626673 39.4296033 4.05719307 42.71440032 4 46 C2.68 45.67 1.36 45.34 0 45 C0.0407666 44.2886792 0.0815332 43.5773584 0.12353516 42.84448242 C0.30177069 39.62599034 0.46357255 36.40687701 0.625 33.1875 C0.68945312 32.06794922 0.75390625 30.94839844 0.8203125 29.79492188 C0.871875 28.72177734 0.9234375 27.64863281 0.9765625 26.54296875 C1.02893066 25.55321045 1.08129883 24.56345215 1.13525391 23.54370117 C1.20359008 20.75316867 1.20359008 20.75316867 -1 18 C-1.16888242 15.2721195 -1.23325126 12.66090398 -1.1875 9.9375 C-1.18685547 9.20466797 -1.18621094 8.47183594 -1.18554688 7.71679688 C-1.140625 2.28125 -1.140625 2.28125 0 0 Z " fill="#75B2A5" transform="translate(66,20)"/>
<path d="M0 0 C5.40894713 -0.36059648 5.40894713 -0.36059648 7.703125 1.0390625 C9.71070148 4.07461489 9.21722214 7.08407288 8.9375 10.5625 C8.90978516 11.24763672 8.88207031 11.93277344 8.85351562 12.63867188 C8.71484375 14.62890625 8.71484375 14.62890625 8 18 C6.00390625 19.33984375 6.00390625 19.33984375 4 20 C2.8517315 22.296537 2.88438825 23.58313167 2.90234375 26.1328125 C2.90556641 26.93847656 2.90878906 27.74414062 2.91210938 28.57421875 C2.92048828 29.41597656 2.92886719 30.25773437 2.9375 31.125 C2.94426758 32.39923828 2.94426758 32.39923828 2.95117188 33.69921875 C2.96297126 35.79950909 2.98090694 37.8997633 3 40 C2.67 40 2.34 40 2 40 C1.67 38.35 1.34 36.7 1 35 C0.67 38.96 0.34 42.92 0 47 C-0.33 47 -0.66 47 -1 47 C-1.02497151 42.07446652 -1.04298678 37.148971 -1.05493164 32.22338867 C-1.05991846 30.55248369 -1.06671031 28.88158298 -1.07543945 27.21069336 C-1.12185731 18.08821877 -1.12303748 9.07166129 0 0 Z " fill="#3E8B8F" transform="translate(57,19)"/>
<path d="M0 0 C0.33 2.31 0.66 4.62 1 7 C3.64 6.67 6.28 6.34 9 6 C8.67 7.98 8.34 9.96 8 12 C7.34 12 6.68 12 6 12 C5.71125 12.78375 5.4225 13.5675 5.125 14.375 C4 17 4 17 2 19 C-0.3828125 19.4140625 -0.3828125 19.4140625 -3.125 19.625 C-4.03507812 19.69976562 -4.94515625 19.77453125 -5.8828125 19.8515625 C-6.93082031 19.92503906 -6.93082031 19.92503906 -8 20 C-8.91366594 8.7483731 -8.91366594 8.7483731 -6.734375 4.578125 C-2.83729339 0 -2.83729339 0 0 0 Z " fill="#ABD4C9" transform="translate(81,46)"/>
<path d="M0 0 C1.98 0 3.96 0 6 0 C6 15.51 6 31.02 6 47 C5.01 47 4.02 47 3 47 C3.0314209 45.91114502 3.0314209 45.91114502 3.06347656 44.80029297 C3.1469365 41.49200445 3.19875539 38.18393789 3.25 34.875 C3.28351562 33.73289063 3.31703125 32.59078125 3.3515625 31.4140625 C3.4285605 24.79223469 3.04642105 21.41889135 -1 16 C-1.42578125 12.16796875 -1.42578125 12.16796875 -1.3125 8.1875 C-1.30283203 7.50751953 -1.29316406 6.82753906 -1.28320312 6.12695312 C-1.16952328 1.16952328 -1.16952328 1.16952328 0 0 Z M2 4 C2 6.31 2 8.62 2 11 C2.33 11 2.66 11 3 11 C3 8.69 3 6.38 3 4 C2.67 4 2.34 4 2 4 Z " fill="#80B7AB" transform="translate(50,19)"/>
<path d="M0 0 C0.66 0.33 1.32 0.66 2 1 C1.67 1.99 1.34 2.98 1 4 C2.65 3.67 4.3 3.34 6 3 C6 4.98 6 6.96 6 9 C5.01 9.495 5.01 9.495 4 10 C4 10.66 4 11.32 4 12 C-1.6932495 13.18609365 -5.42567486 12.66251802 -11 11 C-11 10.34 -11 9.68 -11 9 C-10.01 8.67 -9.02 8.34 -8 8 C-7.67 6.35 -7.34 4.7 -7 3 C-5.68 3 -4.36 3 -3 3 C-1.2488427 1.5833253 -1.2488427 1.5833253 0 0 Z " fill="#31808D" transform="translate(50,67)"/>
<path d="M0 0 C1.65 0.33 3.3 0.66 5 1 C5 1.99 5 2.98 5 4 C5.66 4 6.32 4 7 4 C7 4.66 7 5.32 7 6 C7.99 6.33 8.98 6.66 10 7 C10 7.66 10 8.32 10 9 C10.66 9 11.32 9 12 9 C12 9.99 12 10.98 12 12 C12.99 12.33 13.98 12.66 15 13 C15.94921875 15.06640625 15.94921875 15.06640625 16.6875 17.5625 C16.93886719 18.38878906 17.19023438 19.21507813 17.44921875 20.06640625 C17.63097656 20.70449219 17.81273438 21.34257812 18 22 C16.35 22 14.7 22 13 22 C12.731875 21.071875 12.46375 20.14375 12.1875 19.1875 C11.06289965 16.1688359 10.29293427 15.0844857 8 13 C8 12.34 8 11.68 8 11 C7.0409375 10.8453125 7.0409375 10.8453125 6.0625 10.6875 C5.381875 10.460625 4.70125 10.23375 4 10 C3.67 9.01 3.34 8.02 3 7 C0.50240018 5.30117552 0.50240018 5.30117552 -2 4 C-1.34 2.68 -0.68 1.36 0 0 Z " fill="#848D8E" transform="translate(79,7)"/>
<path d="M0 0 C0.94721072 2.60482949 1.30222393 4.30674701 0.17578125 6.890625 C-0.82936725 8.62582873 -1.9106145 10.31640423 -3 12 C-4.32 12 -5.64 12 -7 12 C-7 12.66 -7 13.32 -7 14 C-8.32 14.33 -9.64 14.66 -11 15 C-11 11 -11 11 -9 9 C-8.75787127 7.01871492 -8.75787127 7.01871492 -8.875 4.875 C-8.936875 2.956875 -8.936875 2.956875 -9 1 C-3.375 -1.125 -3.375 -1.125 0 0 Z " fill="#227B88" transform="translate(34,55)"/>
<path d="M0 0 C0.33 0 0.66 0 1 0 C0.96519531 0.89203125 0.93039063 1.7840625 0.89453125 2.703125 C0.86746094 3.87359375 0.84039062 5.0440625 0.8125 6.25 C0.77769531 7.41015625 0.74289063 8.5703125 0.70703125 9.765625 C0.69149143 12.97386682 0.69149143 12.97386682 2.5 14.82226562 C4.48963997 17.71087053 4.34418825 19.5951987 4.29296875 23.078125 C4.28330078 24.23828125 4.27363281 25.3984375 4.26367188 26.59375 C4.23853516 27.8003125 4.21339844 29.006875 4.1875 30.25 C4.17396484 31.47203125 4.16042969 32.6940625 4.14648438 33.953125 C4.1111398 36.96919498 4.0617956 39.98437487 4 43 C2.68 42.67 1.36 42.34 0 42 C0.0407666 41.2886792 0.0815332 40.5773584 0.12353516 39.84448242 C0.30177069 36.62599034 0.46357255 33.40687701 0.625 30.1875 C0.68945312 29.06794922 0.75390625 27.94839844 0.8203125 26.79492188 C0.871875 25.72177734 0.9234375 24.64863281 0.9765625 23.54296875 C1.02893066 22.55321045 1.08129883 21.56345215 1.13525391 20.54370117 C1.20359008 17.75316867 1.20359008 17.75316867 -1 15 C-1.23046875 11.6796875 -1.23046875 11.6796875 -1.1875 7.875 C-1.18105469 6.61429688 -1.17460938 5.35359375 -1.16796875 4.0546875 C-1 1 -1 1 0 0 Z " fill="#83BFB1" transform="translate(66,23)"/>
<path d="M0 0 C0.99 0 1.98 0 3 0 C3.33 0.99 3.66 1.98 4 3 C3.4225 3.53625 2.845 4.0725 2.25 4.625 C-1.17063892 8.23567441 -4.22631412 11.97104176 -5 17 C-6.65 17 -8.3 17 -10 17 C-11 15 -11 15 -10.25 11.9375 C-9.8375 10.968125 -9.425 9.99875 -9 9 C-8.01 8.67 -7.02 8.34 -6 8 C-4.65729179 6.00628175 -3.32346506 4.0065438 -2 2 C-1.34 2 -0.68 2 0 2 C0 1.34 0 0.68 0 0 Z " fill="#788A8A" transform="translate(38,12)"/>
<path d="M0 0 C2.97 0.33 5.94 0.66 9 1 C8.938125 1.86625 8.87625 2.7325 8.8125 3.625 C9.02455502 7.44199033 10.12044307 9.71077536 12 13 C10.35 13 8.7 13 7 13 C7 12.34 7 11.68 7 11 C6.01 10.67 5.02 10.34 4 10 C1.04059383 6.92677052 0.47482665 4.17847455 0 0 Z " fill="#9BC8A9" transform="translate(36,52)"/>
<path d="M0 0 C2.33301986 0.03824623 4.66711508 0.04574284 7 0 C7 0.66 7 1.32 7 2 C8.32 2.33 9.64 2.66 11 3 C9.68 4.32 8.36 5.64 7 7 C6.21625 6.690625 5.4325 6.38125 4.625 6.0625 C0.10148422 4.73664193 -4.31431814 4.35188915 -9 4 C-9 2.68 -9 1.36 -9 0 C-5.60832521 -1.13055826 -3.45510019 -0.7231605 0 0 Z " fill="#889898" transform="translate(67,3)"/>
<path d="M0 0 C0.66 0.33 1.32 0.66 2 1 C2.33 0.67 2.66 0.34 3 0 C3.721875 0.144375 4.44375 0.28875 5.1875 0.4375 C8.19065047 1.03813009 10.94552036 1.07103441 14 1 C14 2.65 14 4.3 14 6 C13.34 5.67 12.68 5.34 12 5 C10.07740967 5.09805226 10.07740967 5.09805226 8 5.4375 C2.68212587 6.20976481 -2.63077883 6 -8 6 C-7.34 4.68 -6.68 3.36 -6 2 C-4.35 2 -2.7 2 -1 2 C-0.67 1.34 -0.34 0.68 0 0 Z " fill="#64A5AD" transform="translate(65,70)"/>
<path d="M0 0 C-0.33 1.98 -0.66 3.96 -1 6 C-1.66 6 -2.32 6 -3 6 C-3.28875 6.78375 -3.5775 7.5675 -3.875 8.375 C-5 11 -5 11 -7 13 C-9.625 13.125 -9.625 13.125 -12 13 C-9.25 7.125 -9.25 7.125 -7 6 C-7 5.01 -7 4.02 -7 3 C-7.66 2.67 -8.32 2.34 -9 2 C-5.86501708 0.14223235 -3.62528568 -0.20140476 0 0 Z " fill="#A1D0A6" transform="translate(90,52)"/>
<path d="M0 0 C1.98 0 3.96 0 6 0 C6.33 0.99 6.66 1.98 7 3 C5.09392715 4.06092734 3.17467254 5.09820101 1.25 6.125 C0.18265625 6.70507812 -0.8846875 7.28515625 -1.984375 7.8828125 C-5 9 -5 9 -7.390625 8.1796875 C-8.18726563 7.59574219 -8.18726563 7.59574219 -9 7 C-9 6.34 -9 5.68 -9 5 C-6.03312999 3.35173889 -3.34373475 2.55728913 0 2 C0 1.34 0 0.68 0 0 Z " fill="#798E8B" transform="translate(50,4)"/>
<path d="M0 0 C0.33 0 0.66 0 1 0 C1 8.25 1 16.5 1 25 C0.01 25 -0.98 25 -2 25 C-2.05437005 22.14557247 -2.09384974 19.29219924 -2.125 16.4375 C-2.14175781 15.63763672 -2.15851562 14.83777344 -2.17578125 14.01367188 C-2.21723982 8.93499665 -1.64056075 4.81188094 0 0 Z " fill="#82BDB3" transform="translate(55,41)"/>
<path d="M0 0 C1.32 0.33 2.64 0.66 4 1 C3.01 2.485 3.01 2.485 2 4 C1.34 4 0.68 4 0 4 C0 4.99 0 5.98 0 7 C-0.66 7 -1.32 7 -2 7 C-2 7.66 -2 8.32 -2 9 C-2.66 9.66 -3.32 10.32 -4 11 C-3.6814823 13.10820797 -3.6814823 13.10820797 -3 15 C-3.99 15.33 -4.98 15.66 -6 16 C-6.33 13.36 -6.66 10.72 -7 8 C-8.32 7.67 -9.64 7.34 -11 7 C-9.9275 6.95875 -8.855 6.9175 -7.75 6.875 C-3.76438296 6.35391691 -3.76438296 6.35391691 -1.5625 2.9375 C-1.046875 1.968125 -0.53125 0.99875 0 0 Z " fill="#41837C" transform="translate(87,58)"/>
<path d="M0 0 C5.4 -0.36 5.4 -0.36 7.71875 1.03125 C9.72177554 4.10906974 9.05632895 7.19178489 8.6875 10.6875 C8.62626953 11.38939453 8.56503906 12.09128906 8.50195312 12.81445312 C8.34897376 14.5442967 8.17637398 16.27238497 8 18 C7.67 18 7.34 18 7 18 C7 13.38 7 8.76 7 4 C6.34 4 5.68 4 5 4 C4.67 4.99 4.34 5.98 4 7 C3.87625 6.360625 3.7525 5.72125 3.625 5.0625 C3.315625 4.0415625 3.315625 4.0415625 3 3 C2.34 2.67 1.68 2.34 1 2 C1.20625 2.5775 1.4125 3.155 1.625 3.75 C2 6 2 6 0 10 C0 6.7 0 3.4 0 0 Z " fill="#53928E" transform="translate(57,19)"/>
<path d="M0 0 C0.33 0 0.66 0 1 0 C1 1.65 1 3.3 1 5 C1.66 5.33 2.32 5.66 3 6 C1 8 1 8 -0.875 8.265625 C-1.57625 8.26046875 -2.2775 8.2553125 -3 8.25 C-3.70125 8.25515625 -4.4025 8.2603125 -5.125 8.265625 C-7 8 -7 8 -9 6 C-9 5.34 -9 4.68 -9 4 C-7.865625 3.87625 -6.73125 3.7525 -5.5625 3.625 C-4.386875 3.41875 -3.21125 3.2125 -2 3 C-1.67 2.34 -1.34 1.68 -1 1 C-0.67 0.67 -0.34 0.34 0 0 Z " fill="#4C929C" transform="translate(79,72)"/>
<path d="M0 0 C0.598125 0.226875 1.19625 0.45375 1.8125 0.6875 C2.5 2.5 2.5 2.5 2.8125 4.6875 C1.625 6.5 1.625 6.5 -0.1875 7.6875 C-2.375 7.375 -2.375 7.375 -4.1875 6.6875 C-4.875 4.875 -4.875 4.875 -5.1875 2.6875 C-3.58493056 0.24147296 -2.95482043 -0.4221172 0 0 Z " fill="#FBFBFB" transform="translate(420.1875,15.3125)"/>
<path d="M0 0 C0.33 0 0.66 0 1 0 C3.27571116 8.03501094 3.27571116 8.03501094 2.125 12.0625 C1.568125 13.0215625 1.568125 13.0215625 1 14 C0.01 14 -0.98 14 -2 14 C-2.05389087 12.04196493 -2.09274217 10.08351091 -2.125 8.125 C-2.14820312 7.03445312 -2.17140625 5.94390625 -2.1953125 4.8203125 C-2 2 -2 2 0 0 Z " fill="#4F989B" transform="translate(72,41)"/>
<path d="M0 0 C0.66 1.32 1.32 2.64 2 4 C-2.52084209 8.49335977 -5.54972485 10.73672346 -12 11 C-12 10.34 -12 9.68 -12 9 C-11.46890625 8.76925781 -10.9378125 8.53851563 -10.390625 8.30078125 C-5.79832691 6.18061443 -2.88155149 4.32232724 0 0 Z " fill="#F4F5F4" transform="translate(282,29)"/>
<path d="M0 0 C0.598125 0.20625 1.19625 0.4125 1.8125 0.625 C1.8125 2.275 1.8125 3.925 1.8125 5.625 C-0.5625 6.6875 -0.5625 6.6875 -3.1875 7.625 C-3.8475 7.295 -4.5075 6.965 -5.1875 6.625 C-5.375 4.25 -5.375 4.25 -5.1875 1.625 C-2.1875 -0.375 -2.1875 -0.375 0 0 Z " fill="#FBFBFB" transform="translate(242.1875,15.375)"/>
<path d="M0 0 C1.65 0.33 3.3 0.66 5 1 C5 1.99 5 2.98 5 4 C5.66 4 6.32 4 7 4 C7 4.66 7 5.32 7 6 C7.66 6.33 8.32 6.66 9 7 C8.01 7.33 7.02 7.66 6 8 C5.34 8.66 4.68 9.32 4 10 C3.67 9.01 3.34 8.02 3 7 C0.50240018 5.30117552 0.50240018 5.30117552 -2 4 C-1.34 2.68 -0.68 1.36 0 0 Z " fill="#8C9D9C" transform="translate(79,7)"/>
<path d="M0 0 C0 3.63 0 7.26 0 11 C-1.32 10.01 -2.64 9.02 -4 8 C-3.67 7.34 -3.34 6.68 -3 6 C-3.66 5.67 -4.32 5.34 -5 5 C-4.67 4.67 -4.34 4.34 -4 4 C-5.65 4 -7.3 4 -9 4 C-9.33 3.34 -9.66 2.68 -10 2 C-3.375 0 -3.375 0 0 0 Z " fill="#2D828D" transform="translate(101,56)"/>
<path d="M0 0 C0.99 0.33 1.98 0.66 3 1 C3 3.64 3 6.28 3 9 C2.01 9.495 2.01 9.495 1 10 C0.34444881 12.52733235 0.34444881 12.52733235 0 15 C-0.33 15 -0.66 15 -1 15 C-1.02685412 12.68756208 -1.04632841 10.3750373 -1.0625 8.0625 C-1.07410156 6.77472656 -1.08570313 5.48695312 -1.09765625 4.16015625 C-1 1 -1 1 0 0 Z " fill="#247E88" transform="translate(58,30)"/>
<path d="M0 0 C0 0.99 0 1.98 0 3 C1.65 3 3.3 3 5 3 C3.82421875 4.51953125 3.82421875 4.51953125 2 6 C-0.48046875 6.07421875 -0.48046875 6.07421875 -3.1875 5.6875 C-4.08855469 5.56761719 -4.98960938 5.44773437 -5.91796875 5.32421875 C-6.60503906 5.21722656 -7.29210938 5.11023438 -8 5 C-7.67 3.68 -7.34 2.36 -7 1 C-2.25 0 -2.25 0 0 0 Z " fill="#6DB0BA" transform="translate(50,69)"/>
<path d="M0 0 C0.66 0.33 1.32 0.66 2 1 C1.41892368 4.7602985 0.34800504 7.53035032 -1.5625 10.8125 C-2.01753906 11.60269531 -2.47257812 12.39289062 -2.94140625 13.20703125 C-3.29074219 13.79871094 -3.64007813 14.39039063 -4 15 C-4.66 15 -5.32 15 -6 15 C-5.27623543 11.50596417 -3.93714794 8.48001095 -2.4375 5.25 C-1.98246094 4.26515625 -1.52742188 3.2803125 -1.05859375 2.265625 C-0.70925781 1.51796875 -0.35992187 0.7703125 0 0 Z " fill="#F3F6F5" transform="translate(391,31)"/>
<path d="M0 0 C2.375 0.3125 2.375 0.3125 5 1 C7 4 7 4 6.75 7.125 C6.5025 8.07375 6.255 9.0225 6 10 C5.01 10.495 5.01 10.495 4 11 C3.938125 10.05125 3.87625 9.1025 3.8125 8.125 C3.544375 7.09375 3.27625 6.0625 3 5 C0.53744315 3.54708727 0.53744315 3.54708727 -2 3 C-1.34 2.67 -0.68 2.34 0 2 C0 1.34 0 0.68 0 0 Z " fill="#418D8A" transform="translate(69,17)"/>
<path d="M0 0 C0.99 0.33 1.98 0.66 3 1 C3.94921875 3.06640625 3.94921875 3.06640625 4.6875 5.5625 C4.93886719 6.38878906 5.19023438 7.21507812 5.44921875 8.06640625 C5.63097656 8.70449219 5.81273438 9.34257812 6 10 C4.35 10 2.7 10 1 10 C0.83266843 8.5209084 0.66615314 7.04172444 0.5 5.5625 C0.4071875 4.73878906 0.314375 3.91507813 0.21875 3.06640625 C0 1 0 1 0 0 Z " fill="#909B98" transform="translate(91,19)"/>
<path d="M0 0 C0.33 1.65 0.66 3.3 1 5 C-3.61702128 6.19148936 -3.61702128 6.19148936 -6 5 C-6.625 2.4375 -6.625 2.4375 -7 0 C-3.98968256 -0.93423645 -3.13349732 -1.04449911 0 0 Z " fill="#2D8799" transform="translate(34,55)"/>
<path d="M0 0 C1.98 0 3.96 0 6 0 C6 1.32 6 2.64 6 4 C4.02 4.99 4.02 4.99 2 6 C1.01 5.01 0.02 4.02 -1 3 C-0.67 2.01 -0.34 1.02 0 0 Z " fill="#88BAAE" transform="translate(96,40)"/>
<path d="M0 0 C1.98 0 3.96 0 6 0 C6 1.32 6 2.64 6 4 C4.02 4.99 4.02 4.99 2 6 C1.01 5.01 0.02 4.02 -1 3 C-0.67 2.01 -0.34 1.02 0 0 Z " fill="#85B7AF" transform="translate(24,40)"/>
<path d="M0 0 C0.66 0 1.32 0 2 0 C1.34 2.97 0.68 5.94 0 9 C-0.66 9 -1.32 9 -2 9 C-2 8.34 -2 7.68 -2 7 C-3.32 6.67 -4.64 6.34 -6 6 C-5.34 5.67 -4.68 5.34 -4 5 C-4 4.34 -4 3.68 -4 3 C-3.01 2.67 -2.02 2.34 -1 2 C-0.67 1.34 -0.34 0.68 0 0 Z " fill="#227280" transform="translate(31,64)"/>
<path d="M0 0 C0.99 0 1.98 0 3 0 C3 3.63 3 7.26 3 11 C2.01 11 1.02 11 0 11 C0 7.37 0 3.74 0 0 Z " fill="#307C82" transform="translate(70,55)"/>
<path d="M0 0 C0.515625 0.37125 1.03125 0.7425 1.5625 1.125 C-1.4375 3.125 -1.4375 3.125 -3.4375 4.125 C-3.7675 5.115 -4.0975 6.105 -4.4375 7.125 C-6.4620738 5.19245228 -7.85855792 3.49341312 -9.4375 1.125 C-3.0375 -1.09038462 -3.0375 -1.09038462 0 0 Z " fill="#2E7E8A" transform="translate(68.4375,65.875)"/>
<path d="M0 0 C0.99 0.66 1.98 1.32 3 2 C3 2.99 3 3.98 3 5 C0.69 5.33 -1.62 5.66 -4 6 C-4.33 7.32 -4.66 8.64 -5 10 C-5 8.35 -5 6.7 -5 5 C-4.34 5 -3.68 5 -3 5 C-3 3.68 -3 2.36 -3 1 C-2.01 0.67 -1.02 0.34 0 0 Z " fill="#2B787F" transform="translate(101,65)"/>
<path d="M0 0 C-0.11509661 1.41750563 -0.24253658 2.83401169 -0.375 4.25 C-0.44460937 5.03890625 -0.51421875 5.8278125 -0.5859375 6.640625 C-1.01507113 9.085877 -1.78600638 10.84836903 -3 13 C-3.66 12.34 -4.32 11.68 -5 11 C-4.828125 8.65234375 -4.828125 8.65234375 -4.25 5.9375 C-4.06953125 5.03902344 -3.8890625 4.14054687 -3.703125 3.21484375 C-3.47109375 2.48394531 -3.2390625 1.75304687 -3 1 C-1 0 -1 0 0 0 Z " fill="#F0F3F0" transform="translate(209,29)"/>
<path d="M0 0 C0.66 0 1.32 0 2 0 C2 0.66 2 1.32 2 2 C3.32 2.33 4.64 2.66 6 3 C4.68 4.32 3.36 5.64 2 7 C1.01 6.67 0.02 6.34 -1 6 C-1.33 5.01 -1.66 4.02 -2 3 C-1.34 2.01 -0.68 1.02 0 0 Z " fill="#7A8987" transform="translate(72,3)"/>
<path d="M0 0 C0.99 0 1.98 0 3 0 C3 0.66 3 1.32 3 2 C4.65 2 6.3 2 8 2 C8.33 1.34 8.66 0.68 9 0 C9 3 9 3 8 5 C4.05272412 5.17942163 1.4019487 5.09350689 -2 3 C-1.34 2.67 -0.68 2.34 0 2 C0 1.34 0 0.68 0 0 Z " fill="#33808D" transform="translate(59,74)"/>
<path d="M0 0 C0.99 0.33 1.98 0.66 3 1 C3 3.64 3 6.28 3 9 C1.68 8.67 0.36 8.34 -1 8 C-0.67 5.36 -0.34 2.72 0 0 Z " fill="#7DB7AE" transform="translate(67,57)"/>
<path d="M0 0 C0.66 0.33 1.32 0.66 2 1 C1.34 2.65 0.68 4.3 0 6 C-2.64 6 -5.28 6 -8 6 C-7.34 4.68 -6.68 3.36 -6 2 C-4.35 2 -2.7 2 -1 2 C-0.67 1.34 -0.34 0.68 0 0 Z " fill="#71B2BD" transform="translate(65,70)"/>
<path d="M0 0 C2 3 2 3 1.75 6.375 C1.10626078 9.48640622 0.30944157 12.11922854 -1 15 C-1.99 14.67 -2.98 14.34 -4 14 C-2.125 10.125 -2.125 10.125 -1 9 C-1 7.68 -1 6.36 -1 5 C-1 1 -1 1 0 0 Z " fill="#357F85" transform="translate(26,55)"/>
<path d="M0 0 C0.515625 0.391875 1.03125 0.78375 1.5625 1.1875 C-1.65377837 3.33168558 -3.62840105 3.86332137 -7.4375 4.1875 C-8.0975 3.5275 -8.7575 2.8675 -9.4375 2.1875 C-3.0375 -1.0125 -3.0375 -1.0125 0 0 Z " fill="#EFF1F0" transform="translate(462.4375,54.8125)"/>
<path d="M0 0 C0.99 0.33 1.98 0.66 3 1 C3 1.66 3 2.32 3 3 C-2.445 5.475 -2.445 5.475 -8 8 C-7.67 7.01 -7.34 6.02 -7 5 C-4.4375 3.8125 -4.4375 3.8125 -2 3 C-2 2.34 -2 1.68 -2 1 C-1.34 0.67 -0.68 0.34 0 0 Z " fill="#F9F9FA" transform="translate(452,57)"/>
<path d="M0 0 C1.32 0.66 2.64 1.32 4 2 C3.67 3.32 3.34 4.64 3 6 C1.68 5.67 0.36 5.34 -1 5 C-1 1 -1 1 0 0 Z " fill="#8CA8A6" transform="translate(39,40)"/>
<path d="M0 0 C0.99 0.33 1.98 0.66 3 1 C3.33 1.99 3.66 2.98 4 4 C-0.29 4 -4.58 4 -9 4 C-9 3.67 -9 3.34 -9 3 C-8.071875 2.87625 -7.14375 2.7525 -6.1875 2.625 C-2.86074765 2.18466918 -2.86074765 2.18466918 0 0 Z " fill="#1A6A76" transform="translate(68,76)"/>
<path d="M0 0 C0.66 0.33 1.32 0.66 2 1 C1.67 1.99 1.34 2.98 1 4 C2.65 3.67 4.3 3.34 6 3 C6 4.98 6 6.96 6 9 C4.68 8.67 3.36 8.34 2 8 C2.66 7.34 3.32 6.68 4 6 C2.68 5.67 1.36 5.34 0 5 C0 4.01 0 3.02 0 2 C-0.66 1.67 -1.32 1.34 -2 1 C-1.34 0.67 -0.68 0.34 0 0 Z " fill="#3E8693" transform="translate(50,67)"/>
<path d="M0 0 C0.33 0.99 0.66 1.98 1 3 C1.66 3 2.32 3 3 3 C3.33 2.34 3.66 1.68 4 1 C3.125 4.875 3.125 4.875 2 6 C0.33382885 6.04063832 -1.33388095 6.042721 -3 6 C-2.01 4.02 -1.02 2.04 0 0 Z " fill="#9BCFB0" transform="translate(81,59)"/>
<path d="M0 0 C1.32 0.66 2.64 1.32 4 2 C3.34 3.32 2.68 4.64 2 6 C0.68 5.34 -0.64 4.68 -2 4 C-1.34 2.68 -0.68 1.36 0 0 Z " fill="#99B6B7" transform="translate(85,40)"/>
<path d="M0 0 C0.99 0 1.98 0 3 0 C3.33 0.99 3.66 1.98 4 3 C2.35 4.32 0.7 5.64 -1 7 C-1.66 5.68 -2.32 4.36 -3 3 C-2.01 2.67 -1.02 2.34 0 2 C0 1.34 0 0.68 0 0 Z " fill="#829892" transform="translate(38,12)"/>
<path d="M0 0 C-0.33 1.32 -0.66 2.64 -1 4 C-2.65 4 -4.3 4 -6 4 C-6 2.68 -6 1.36 -6 0 C-2.25 -1.125 -2.25 -1.125 0 0 Z " fill="#748888" transform="translate(64,3)"/>
<path d="M0 0 C0 0.66 0 1.32 0 2 C-0.66 2 -1.32 2 -2 2 C-2 2.66 -2 3.32 -2 4 C-2.99 4.33 -3.98 4.66 -5 5 C-5.66 4.34 -6.32 3.68 -7 3 C-7 2.34 -7 1.68 -7 1 C-4 0 -4 0 0 0 Z " fill="#307F8C" transform="translate(77,75)"/>
<path d="M0 0 C0 1.65 0 3.3 0 5 C-0.66 4.67 -1.32 4.34 -2 4 C-3.67654729 4.27942455 -5.34608154 4.60828247 -7 5 C-6.67 3.68 -6.34 2.36 -6 1 C-3.92446352 0.4465236 -2.15634036 0 0 0 Z " fill="#75B4BF" transform="translate(79,71)"/>
<path d="M0 0 C1.65 0 3.3 0 5 0 C4.67 1.98 4.34 3.96 4 6 C3.34 6 2.68 6 2 6 C2 5.01 2 4.02 2 3 C1.34 3 0.68 3 0 3 C0 2.01 0 1.02 0 0 Z " fill="#9BC2A6" transform="translate(85,52)"/>
<path d="M0 0 C0.94875 0.04125 1.8975 0.0825 2.875 0.125 C2.875 0.785 2.875 1.445 2.875 2.125 C1.555 1.795 0.235 1.465 -1.125 1.125 C-1.125 1.785 -1.125 2.445 -1.125 3.125 C-2.115 3.455 -3.105 3.785 -4.125 4.125 C-5.79210346 5.62485609 -5.79210346 5.62485609 -7.125 7.125 C-4.56730769 0.18269231 -4.56730769 0.18269231 0 0 Z " fill="#F3F5F3" transform="translate(348.125,29.875)"/>
<path d="M0 0 C0.66 1.32 1.32 2.64 2 4 C0.35 5.32 -1.3 6.64 -3 8 C-3 3.73173127 -2.62386487 3.06117568 0 0 Z " fill="#F1F4F3" transform="translate(386,29)"/>
<path d="M0 0 C4.875 0.875 4.875 0.875 6 2 C6.07205511 3.68608966 6.08386068 5.37500659 6.0625 7.0625 C6.05347656 7.98160156 6.04445313 8.90070312 6.03515625 9.84765625 C6.02355469 10.55792969 6.01195313 11.26820312 6 12 C5.67 12 5.34 12 5 12 C4.89042969 11.36191406 4.78085938 10.72382813 4.66796875 10.06640625 C4.50941406 9.24011719 4.35085937 8.41382813 4.1875 7.5625 C3.96126953 6.32693359 3.96126953 6.32693359 3.73046875 5.06640625 C3.48941406 4.38449219 3.24835938 3.70257812 3 3 C2.01 2.67 1.02 2.34 0 2 C0 1.34 0 0.68 0 0 Z " fill="#76B9B1" transform="translate(67,20)"/>
<path d="M0 0 C2.2477975 2.05233685 3.0022242 3.00667261 4 6 C2.35 6 0.7 6 -1 6 C-1.33 4.35 -1.66 2.7 -2 1 C-1.34 0.67 -0.68 0.34 0 0 Z " fill="#9ECEB0" transform="translate(44,59)"/>
<path d="M0 0 C3.37503669 1.1858237 5.64722731 2.27573689 8 5 C7.67 5.66 7.34 6.32 7 7 C3.535 5.02 3.535 5.02 0 3 C0 2.01 0 1.02 0 0 Z " fill="#47827B" transform="translate(35,58)"/>
<path d="M0 0 C0.99 0.66 1.98 1.32 3 2 C2.625 4.9375 2.625 4.9375 2 8 C1.01 8.495 1.01 8.495 0 9 C0 8.34 0 7.68 0 7 C-0.66 6.67 -1.32 6.34 -2 6 C-2 5.34 -2 4.68 -2 4 C-1.34 4 -0.68 4 0 4 C0 2.68 0 1.36 0 0 Z " fill="#78B1A1" transform="translate(53,26)"/>
<path d="M0 0 C0.66 0.33 1.32 0.66 2 1 C2.125 4.375 2.125 4.375 2 8 C1.34 8.66 0.68 9.32 0 10 C-1.125 3.375 -1.125 3.375 0 0 Z " fill="#80C0B6" transform="translate(54,20)"/>
<path d="M0 0 C0.99 0 1.98 0 3 0 C3 3.63 3 7.26 3 11 C2.34 10.67 1.68 10.34 1 10 C0.5859375 7.71484375 0.5859375 7.71484375 0.375 4.9375 C0.30023438 4.01839844 0.22546875 3.09929688 0.1484375 2.15234375 C0.09945312 1.44207031 0.05046875 0.73179688 0 0 Z " fill="#398089" transform="translate(98,56)"/>
<path d="M0 0 C2.475 0.99 2.475 0.99 5 2 C5 3.65 5 5.3 5 7 C3.68 6.67 2.36 6.34 1 6 C0.67 4.02 0.34 2.04 0 0 Z " fill="#3B8B8B" transform="translate(58,21)"/>
<path d="M0 0 C0.33 0.66 0.66 1.32 1 2 C2.32 2 3.64 2 5 2 C5 2.99 5 3.98 5 5 C3.35 5 1.7 5 0 5 C-0.33 4.34 -0.66 3.68 -1 3 C-0.67 2.01 -0.34 1.02 0 0 Z " fill="#708384" transform="translate(28,24)"/>
<path d="M0 0 C0.66 0.33 1.32 0.66 2 1 C1.67 1.99 1.34 2.98 1 4 C-1.0625 4.6875 -1.0625 4.6875 -3 5 C-3.66 3.68 -4.32 2.36 -5 1 C-3.68 1.33 -2.36 1.66 -1 2 C-0.67 1.34 -0.34 0.68 0 0 Z " fill="#91A8A1" transform="translate(46,8)"/>
<path d="M0 0 C2.50037734 2.17424117 3.43628586 3.73045798 4 7 C3.01 7.33 2.02 7.66 1 8 C0.67 5.36 0.34 2.72 0 0 Z " fill="#51A0AA" transform="translate(80,66)"/>
<path d="M0 0 C0.99 0.99 1.98 1.98 3 3 C0.6875 5.0625 0.6875 5.0625 -2 7 C-2.99 6.67 -3.98 6.34 -5 6 C-4.360625 5.38125 -3.72125 4.7625 -3.0625 4.125 C-0.96116416 2.17402388 -0.96116416 2.17402388 0 0 Z " fill="#F0F3F5" transform="translate(433,31)"/>
<path d="M0 0 C0.66 0 1.32 0 2 0 C2.33 1.32 2.66 2.64 3 4 C1.68 4 0.36 4 -1 4 C-1 1 -1 1 0 0 Z " fill="#7D9899" transform="translate(43,34)"/>
<path d="M0 0 C0.99 0.99 1.98 1.98 3 3 C2.67 3.66 2.34 4.32 2 5 C0.68 4.34 -0.64 3.68 -2 3 C-1.34 2.01 -0.68 1.02 0 0 Z " fill="#89A3A3" transform="translate(82,34)"/>
<path d="M0 0 C0.66 0 1.32 0 2 0 C2 1.65 2 3.3 2 5 C1.34 4.34 0.68 3.68 0 3 C0 2.01 0 1.02 0 0 Z " fill="#F7FFFF" transform="translate(193,42)"/>
<path d="M0 0 C0.99 0 1.98 0 3 0 C3 0.66 3 1.32 3 2 C2.01 2 1.02 2 0 2 C0 1.34 0 0.68 0 0 Z " fill="#8CA1A4" transform="translate(35,35)"/>
<path d="M0 0 C0 0.99 0 1.98 0 3 C-0.66 2.67 -1.32 2.34 -2 2 C-1.34 1.34 -0.68 0.68 0 0 Z " fill="#FFFFFF" transform="translate(435,35)"/>
<path d="M0 0 C0.99 0.33 1.98 0.66 3 1 C2.34 1.66 1.68 2.32 1 3 C0.67 2.01 0.34 1.02 0 0 Z " fill="#FFFFFF" transform="translate(319,28)"/>
<path d="M0 0 C0 3 0 3 0 3 Z " fill="#FFFFFF" transform="translate(464,45)"/>
<path d="M0 0 C1 4 1 4 1 4 Z " fill="#FFFFFF" transform="translate(401,44)"/>
<path d="M0 0 C0.66 0 1.32 0 2 0 C2 0.66 2 1.32 2 2 C1.34 2 0.68 2 0 2 C0 1.34 0 0.68 0 0 Z " fill="#96A9AE" transform="translate(89,35)"/>
<path d="M0 0 C0.66 0.66 1.32 1.32 2 2 C1.34 2 0.68 2 0 2 C0 1.34 0 0.68 0 0 Z " fill="#FFFFFF" transform="translate(329,46)"/>
<path d="" fill="#FFFFFF" transform="translate(0,0)"/>
<path d="" fill="#FFFFFF" transform="translate(0,0)"/>
<path d="M0 0 C0.33 0.66 0.66 1.32 1 2 C0.34 1.67 -0.32 1.34 -1 1 C-0.67 0.67 -0.34 0.34 0 0 Z " fill="#FFFFFF" transform="translate(275,33)"/>
<path d="M0 0 C0.66 0.66 1.32 1.32 2 2 C1.34 2 0.68 2 0 2 C0 1.34 0 0.68 0 0 Z " fill="#FFFFFF" transform="translate(469,28)"/>
<path d="M0 0 C3 1 3 1 3 1 Z " fill="#FFFFFF" transform="translate(235,23)"/>
<path d="M0 0 C2 1 2 1 2 1 Z " fill="#FFFFFF" transform="translate(452,55)"/>
<path d="" fill="#FFFFFF" transform="translate(0,0)"/>
<path d="" fill="#DFDFDF" transform="translate(0,0)"/>
<path d="" fill="#FFFFFF" transform="translate(0,0)"/>
<path d="" fill="#FFFFFF" transform="translate(0,0)"/>
<path d="" fill="#FFFFFF" transform="translate(0,0)"/>
<path d="" fill="#FFFFFF" transform="translate(0,0)"/>
<path d="" fill="#FFFFFF" transform="translate(0,0)"/>
<path d="" fill="#FFFFFF" transform="translate(0,0)"/>
<path d="" fill="#FFFFFF" transform="translate(0,0)"/>
<path d="" fill="#FFFFFF" transform="translate(0,0)"/>
<path d="" fill="#FFFFFF" transform="translate(0,0)"/>
<path d="" fill="#FFFFFF" transform="translate(0,0)"/>
<path d="" fill="#FFFFFF" transform="translate(0,0)"/>
<path d="" fill="#FFFFFF" transform="translate(0,0)"/>
<path d="" fill="#FFFFFF" transform="translate(0,0)"/>
<path d="" fill="#FFFFFF" transform="translate(0,0)"/>
<path d="" fill="#FFFFFF" transform="translate(0,0)"/>
<path d="" fill="#FFFFFF" transform="translate(0,0)"/>
<path d="" fill="#FFFFFF" transform="translate(0,0)"/>
<path d="" fill="#FFFFFF" transform="translate(0,0)"/>
<path d="" fill="#FFFFFF" transform="translate(0,0)"/>
<path d="" fill="#FFFFFF" transform="translate(0,0)"/>
<path d="" fill="#FFFFFF" transform="translate(0,0)"/>
<path d="" fill="#FFFFFF" transform="translate(0,0)"/>
<path d="" fill="#FFFFFF" transform="translate(0,0)"/>
<path d="" fill="#FFFFFF" transform="translate(0,0)"/>
<path d="" fill="#FFFFFF" transform="translate(0,0)"/>
<path d="" fill="#FFFFFF" transform="translate(0,0)"/>
<path d="" fill="#FFFFFF" transform="translate(0,0)"/>
<path d="" fill="#FFFFFF" transform="translate(0,0)"/>
<path d="" fill="#FFFFFF" transform="translate(0,0)"/>
<path d="" fill="#FFFFFF" transform="translate(0,0)"/>
<path d="" fill="#FFFFFF" transform="translate(0,0)"/>
<path d="" fill="#FFFFFF" transform="translate(0,0)"/>
<path d="" fill="#FFFFFF" transform="translate(0,0)"/>
<path d="" fill="#FFFFFF" transform="translate(0,0)"/>
<path d="" fill="#FFFFFF" transform="translate(0,0)"/>
<path d="" fill="#FFFFFF" transform="translate(0,0)"/>
<path d="" fill="#FFFFFF" transform="translate(0,0)"/>
<path d="" fill="#FFFFFF" transform="translate(0,0)"/>
<path d="" fill="#FFFFFF" transform="translate(0,0)"/>
<path d="" fill="#FFFFFF" transform="translate(0,0)"/>
<path d="" fill="#FFFFFF" transform="translate(0,0)"/>
<path d="" fill="#D5D5D5" transform="translate(0,0)"/>
<path d="" fill="#FFFFFF" transform="translate(0,0)"/>
<path d="" fill="#FFFFFF" transform="translate(0,0)"/>
<path d="" fill="#FFFFFF" transform="translate(0,0)"/>
<path d="" fill="#FFFFFF" transform="translate(0,0)"/>
<path d="" fill="#FFFFFF" transform="translate(0,0)"/>
<path d="" fill="#FFFFFF" transform="translate(0,0)"/>
<path d="" fill="#FFFFFF" transform="translate(0,0)"/>
<path d="" fill="#FFFFFF" transform="translate(0,0)"/>
<path d="" fill="#FFFFFF" transform="translate(0,0)"/>
<path d="" fill="#FFFFFF" transform="translate(0,0)"/>
<path d="" fill="#FFFFFF" transform="translate(0,0)"/>
<path d="" fill="#FFFFFF" transform="translate(0,0)"/>
<path d="" fill="#FFFFFF" transform="translate(0,0)"/>
<path d="" fill="#FFFFFF" transform="translate(0,0)"/>
<path d="" fill="#FFFFFF" transform="translate(0,0)"/>
<path d="" fill="#FFFFFF" transform="translate(0,0)"/>
<path d="" fill="#FFFFFF" transform="translate(0,0)"/>
<path d="" fill="#FFFFFF" transform="translate(0,0)"/>
<path d="" fill="#FFFFFF" transform="translate(0,0)"/>
<path d="" fill="#FFFFFF" transform="translate(0,0)"/>
<path d="" fill="#FFFFFF" transform="translate(0,0)"/>
<path d="" fill="#FFFFFF" transform="translate(0,0)"/>
</svg>
