<?xml version="1.0" encoding="UTF-8"?>
<svg version="1.1" xmlns="http://www.w3.org/2000/svg" width="145" height="150">
<path d="M0 0 C47.85 0 95.7 0 145 0 C145 49.5 145 99 145 150 C97.15 150 49.3 150 0 150 C0 100.5 0 51 0 0 Z " fill="#051B1F" transform="translate(0,0)"/>
<path d="M0 0 C2.4375 0.4375 2.4375 0.4375 4.1875 1.5 C7.23712834 6.22692393 6.79541026 12.97936855 6.4375 18.4375 C5.95152344 19.01628906 5.46554688 19.59507813 4.96484375 20.19140625 C2.81208409 23.35722927 2.8726848 26.47891391 2.75 30.1875 C2.71583984 30.88488281 2.68167969 31.58226563 2.64648438 32.30078125 C2.56441705 34.01247108 2.49927081 35.7249576 2.4375 37.4375 C3.0975 37.4375 3.7575 37.4375 4.4375 37.4375 C4.7675 36.4475 5.0975 35.4575 5.4375 34.4375 C7.39347184 33.04037726 9.39186401 31.69970093 11.4375 30.4375 C12.4375 31.4375 12.4375 31.4375 12.5 35 C12.479375 36.134375 12.45875 37.26875 12.4375 38.4375 C16.8925 37.9425 16.8925 37.9425 21.4375 37.4375 C20.7775 39.7475 20.1175 42.0575 19.4375 44.4375 C20.12457031 44.2209375 20.81164062 44.004375 21.51953125 43.78125 C22.42058594 43.5028125 23.32164063 43.224375 24.25 42.9375 C25.14332031 42.6590625 26.03664063 42.380625 26.95703125 42.09375 C29.4375 41.4375 29.4375 41.4375 32.4375 41.4375 C32.355 42.675 32.2725 43.9125 32.1875 45.1875 C32.1639799 48.51559389 32.19685666 49.15173603 34.4375 51.8125 C35.0975 52.34875 35.7575 52.885 36.4375 53.4375 C36.4375 54.0975 36.4375 54.7575 36.4375 55.4375 C33.7975 56.0975 31.1575 56.7575 28.4375 57.4375 C28.4375 58.7575 28.4375 60.0775 28.4375 61.4375 C25.87536446 62.08480804 23.31281515 62.73039288 20.75 63.375 C20.02876953 63.55740234 19.30753906 63.73980469 18.56445312 63.92773438 C17.85869141 64.10498047 17.15292969 64.28222656 16.42578125 64.46484375 C15.78165283 64.62718506 15.13752441 64.78952637 14.47387695 64.95678711 C13.80187256 65.11542236 13.12986816 65.27405762 12.4375 65.4375 C11.67614746 65.61764648 10.91479492 65.79779297 10.13037109 65.98339844 C4.0948097 67.00118123 -2.13876196 66.72658754 -8.25 66.75 C-8.98983124 66.75394775 -9.72966248 66.75789551 -10.49191284 66.76196289 C-21.95375334 66.7906171 -32.56250036 65.90304138 -43.5625 62.4375 C-43.8925 60.7875 -44.2225 59.1375 -44.5625 57.4375 C-47.2025 56.7775 -49.8425 56.1175 -52.5625 55.4375 C-51.41076645 52.96949953 -50.51466435 51.38966435 -48.5625 49.4375 C-48.32037127 47.45621492 -48.32037127 47.45621492 -48.4375 45.3125 C-48.499375 43.394375 -48.499375 43.394375 -48.5625 41.4375 C-41.8125 42.3125 -41.8125 42.3125 -39.5625 43.4375 C-39.5625 44.0975 -39.5625 44.7575 -39.5625 45.4375 C-38.2425 45.4375 -36.9225 45.4375 -35.5625 45.4375 C-35.2325 46.4275 -34.9025 47.4175 -34.5625 48.4375 C-33.9025 48.7675 -33.2425 49.0975 -32.5625 49.4375 C-32.85125 48.73882812 -33.14 48.04015625 -33.4375 47.3203125 C-33.80875 46.41023438 -34.18 45.50015625 -34.5625 44.5625 C-34.93375 43.65757813 -35.305 42.75265625 -35.6875 41.8203125 C-36.5625 39.4375 -36.5625 39.4375 -36.5625 37.4375 C-33.9225 37.7675 -31.2825 38.0975 -28.5625 38.4375 C-28.2325 36.1275 -27.9025 33.8175 -27.5625 31.4375 C-24.22522214 32.61005709 -21.78812513 33.62618404 -19.5625 36.4375 C-19.5625 37.0975 -19.5625 37.7575 -19.5625 38.4375 C-18.9025 38.4375 -18.2425 38.4375 -17.5625 38.4375 C-17.62302264 36.22842382 -17.71194605 34.02011624 -17.8125 31.8125 C-17.85890625 30.58273438 -17.9053125 29.35296875 -17.953125 28.0859375 C-18.30668242 24.35992638 -18.30668242 24.35992638 -20.59375 21.53125 C-23.22192031 17.40126808 -23.02278524 14.33435742 -22.8125 9.5625 C-22.79445313 8.77875 -22.77640625 7.995 -22.7578125 7.1875 C-22.71105148 5.27029811 -22.63932003 3.35373285 -22.5625 1.4375 C-21.9025 1.4375 -21.2425 1.4375 -20.5625 1.4375 C-20.5625 5.7275 -20.5625 10.0175 -20.5625 14.4375 C-19.9025 14.4375 -19.2425 14.4375 -18.5625 14.4375 C-18.5625 10.1475 -18.5625 5.8575 -18.5625 1.4375 C-17.9025 1.4375 -17.2425 1.4375 -16.5625 1.4375 C-16.5625 5.3975 -16.5625 9.3575 -16.5625 13.4375 C-15.9025 13.4375 -15.2425 13.4375 -14.5625 13.4375 C-14.5625 9.4775 -14.5625 5.5175 -14.5625 1.4375 C-13.9025 1.4375 -13.2425 1.4375 -12.5625 1.4375 C-12.5625 5.3975 -12.5625 9.3575 -12.5625 13.4375 C-11.9025 13.4375 -11.2425 13.4375 -10.5625 13.4375 C-10.5625 9.4775 -10.5625 5.5175 -10.5625 1.4375 C-9.9025 1.4375 -9.2425 1.4375 -8.5625 1.4375 C-8.48146596 4.35472548 -8.42198919 7.26969516 -8.375 10.1875 C-8.34986328 11.0125 -8.32472656 11.8375 -8.29882812 12.6875 C-8.28916016 13.48671875 -8.27949219 14.2859375 -8.26953125 15.109375 C-8.2538208 15.8425293 -8.23811035 16.57568359 -8.22192383 17.33105469 C-8.5625 19.4375 -8.5625 19.4375 -10.0625 21.28710938 C-12.16722624 24.30443176 -11.90347552 26.52336024 -11.85546875 30.171875 C-11.84580078 31.46738281 -11.83613281 32.76289062 -11.82617188 34.09765625 C-11.80110783 35.46094354 -11.77571302 36.82422479 -11.75 38.1875 C-11.73494518 39.56639184 -11.72125817 40.94529935 -11.70898438 42.32421875 C-11.67361909 45.69570915 -11.62425904 49.06640654 -11.5625 52.4375 C-8.9225 52.4375 -6.2825 52.4375 -3.5625 52.4375 C-3.48818022 48.38078317 -3.43381867 44.32433154 -3.39770508 40.26708984 C-3.38264578 38.88778782 -3.36219387 37.50853347 -3.33618164 36.12939453 C-3.29967585 34.14376597 -3.28435147 32.15778382 -3.26953125 30.171875 C-3.24596558 28.38088379 -3.24596558 28.38088379 -3.22192383 26.55371094 C-3.59656714 23.12579178 -4.40099353 22.0159184 -6.5625 19.4375 C-6.99609375 15.90625 -6.99609375 15.90625 -7 11.9375 C-7.01933594 10.6278125 -7.03867188 9.318125 -7.05859375 7.96875 C-6.5625 4.4375 -6.5625 4.4375 -4.6953125 1.99609375 C-2.5625 0.4375 -2.5625 0.4375 0 0 Z " fill="#277C89" transform="translate(80.5625,49.5625)"/>
<path d="M0 0 C1.80623337 0.64952888 1.80623337 0.64952888 3.6489563 1.31217957 C6.83387477 2.45764209 10.01439126 3.61486442 13.1940918 4.77471924 C16.40152982 5.94231796 19.61304505 7.09858358 22.82421875 8.25585938 C29.63983831 10.71444138 36.44959409 13.18897604 43.2578125 15.66796875 C45.36210685 16.43328331 47.46643404 17.19850756 49.57080078 17.96362305 C50.4743631 18.29218796 51.37792542 18.62075287 52.30886841 18.95927429 C52.95201996 19.19314346 53.59517151 19.42701263 54.2578125 19.66796875 C54.2578125 19.99796875 54.2578125 20.32796875 54.2578125 20.66796875 C6.4078125 20.66796875 -41.4421875 20.66796875 -90.7421875 20.66796875 C-88.27101265 18.1967939 -86.20237603 17.61302947 -82.90307617 16.453125 C-81.67807907 16.0192749 -80.45308197 15.5854248 -79.19096375 15.13842773 C-77.84739227 14.66901927 -76.50378898 14.19970185 -75.16015625 13.73046875 C-73.78475057 13.24540287 -72.40953433 12.75979955 -71.03450012 12.27368164 C-67.40989637 10.99374223 -63.78296928 9.72052037 -60.15545654 8.44885254 C-55.76032034 6.90687287 -51.36766757 5.35783736 -46.97494221 3.80900574 C-43.55417254 2.60289575 -40.13295762 1.39811295 -36.71025085 0.19750977 C-35.47579727 -0.23634033 -34.24134369 -0.67019043 -32.96948242 -1.1171875 C-31.88519455 -1.4975415 -30.80090668 -1.87789551 -29.6837616 -2.26977539 C-27.80251189 -2.94912884 -25.93880483 -3.68068865 -24.10398865 -4.47697449 C-16.353096 -7.28307575 -7.24276963 -2.65764178 0 0 Z " fill="#FCFCFC" transform="translate(90.7421875,129.33203125)"/>
<path d="M0 0 C0.66 0 1.32 0 2 0 C2 4.29 2 8.58 2 13 C2.66 13 3.32 13 4 13 C4 8.71 4 4.42 4 0 C4.66 0 5.32 0 6 0 C7.18711389 10.58364898 7.11521814 21.11884033 7.0625 31.75 C7.05747286 33.5260404 7.05291211 35.30208218 7.04882812 37.078125 C7.03792357 41.38545148 7.02072652 45.69271005 7 50 C-4.6875 50 -4.6875 50 -8 49 C-11.35149003 45.29344255 -13.53007713 41.0125106 -14 36 C-11.36 36.33 -8.72 36.66 -6 37 C-5.67 34.69 -5.34 32.38 -5 30 C-1.66272214 31.17255709 0.77437487 32.18868404 3 35 C3 35.66 3 36.32 3 37 C3.66 37 4.32 37 5 37 C4.93947736 34.79092382 4.85055395 32.58261624 4.75 30.375 C4.70359375 29.14523438 4.6571875 27.91546875 4.609375 26.6484375 C4.25581758 22.92242638 4.25581758 22.92242638 1.96875 20.09375 C-0.65942031 15.96376808 -0.46028524 12.89685742 -0.25 8.125 C-0.23195313 7.34125 -0.21390625 6.5575 -0.1953125 5.75 C-0.14855148 3.83279811 -0.07682003 1.91623285 0 0 Z " fill="#ACD3C6" transform="translate(58,51)"/>
<path d="M0 0 C-0.0825 1.2375 -0.165 2.475 -0.25 3.75 C-0.2735201 7.07809389 -0.24064334 7.71423603 2 10.375 C2.66 10.91125 3.32 11.4475 4 12 C4 12.66 4 13.32 4 14 C1.36 14.66 -1.28 15.32 -4 16 C-4 17.32 -4 18.64 -4 20 C-6.58067563 20.69918305 -9.16372847 21.38461049 -11.75 22.0625 C-12.47960937 22.26166016 -13.20921875 22.46082031 -13.9609375 22.66601562 C-17.71031044 23.63744407 -20.30274238 24.15449387 -24 23 C-23.505 21.515 -23.505 21.515 -23 20 C-21.35 20 -19.7 20 -18 20 C-18 18.02 -18 16.04 -18 14 C-18.66 14 -19.32 14 -20 14 C-20.25 11.75 -20.25 11.75 -20 9 C-18.1875 6.9375 -18.1875 6.9375 -16 5 C-14.97676564 3.68441297 -13.96873032 2.35622245 -13 1 C-13 1.66 -13 2.32 -13 3 C-12.31292969 2.7834375 -11.62585938 2.566875 -10.91796875 2.34375 C-10.01691406 2.0653125 -9.11585937 1.786875 -8.1875 1.5 C-7.29417969 1.2215625 -6.40085937 0.943125 -5.48046875 0.65625 C-3 0 -3 0 0 0 Z " fill="#227887" transform="translate(113,91)"/>
<path d="M0 0 C2.4375 0.8125 2.4375 0.8125 4.4375 2.8125 C4.66253811 5.36098356 4.76190357 7.76513669 4.75 10.3125 C4.76611328 11.00214844 4.78222656 11.69179688 4.79882812 12.40234375 C4.80078125 14.40625 4.80078125 14.40625 4.4375 17.8125 C3.4475 18.4725 2.4575 19.1325 1.4375 19.8125 C0.92495872 23.0126106 0.92495872 23.0126106 0.92578125 26.7890625 C0.90783005 27.47431 0.88987885 28.1595575 0.87138367 28.86557007 C0.81716292 31.05615059 0.78334947 33.2465119 0.75 35.4375 C0.71683706 36.92190559 0.68234835 38.40628221 0.64648438 39.890625 C0.56143185 43.53103912 0.49467644 47.17152944 0.4375 50.8125 C-0.5525 50.8125 -1.5425 50.8125 -2.5625 50.8125 C-2.54678955 49.95495117 -2.5310791 49.09740234 -2.51489258 48.21386719 C-2.46367577 45.02329753 -2.42610688 41.83293785 -2.39770508 38.64208984 C-2.38264578 37.26278782 -2.36219387 35.88353347 -2.33618164 34.50439453 C-2.29967585 32.51876597 -2.28435147 30.53278382 -2.26953125 28.546875 C-2.24596558 26.75588379 -2.24596558 26.75588379 -2.22192383 24.92871094 C-2.59663886 21.50013557 -3.40442708 20.39372447 -5.5625 17.8125 C-5.9609375 14.24609375 -5.9609375 14.24609375 -5.9375 10.25 C-5.94910156 9.57775391 -5.96070312 8.90550781 -5.97265625 8.21289062 C-5.95522308 5.28702381 -5.88523124 3.28041406 -4.19921875 0.8359375 C-2.5625 -0.1875 -2.5625 -0.1875 0 0 Z " fill="#74B0A2" transform="translate(79.5625,51.1875)"/>
<path d="M0 0 C0.66 0.33 1.32 0.66 2 1 C2 3.31 2 5.62 2 8 C6.455 7.505 6.455 7.505 11 7 C10.12454117 8.96752602 9.22381454 10.92382276 8.3125 12.875 C7.56419922 14.51082031 7.56419922 14.51082031 6.80078125 16.1796875 C4.73967018 19.40771828 3.66623261 20.10579692 0 21 C-2.23828125 21.1953125 -2.23828125 21.1953125 -4.3125 21.125 C-5.529375 21.08375 -6.74625 21.0425 -8 21 C-8.78649032 9.06282475 -8.78649032 9.06282475 -5.6875 4.875 C-4.800625 4.25625 -3.91375 3.6375 -3 3 C-2.401875 2.401875 -1.80375 1.80375 -1.1875 1.1875 C-0.795625 0.795625 -0.40375 0.40375 0 0 Z " fill="#A8D0C3" transform="translate(91,80)"/>
<path d="M0 0 C0.66 0 1.32 0 2 0 C2 4.29 2 8.58 2 13 C2.66 13 3.32 13 4 13 C4 8.71 4 4.42 4 0 C4.66 0 5.32 0 6 0 C7.18711389 10.58364898 7.11521814 21.11884033 7.0625 31.75 C7.05747286 33.5260404 7.05291211 35.30208218 7.04882812 37.078125 C7.03792357 41.38545148 7.02072652 45.69271005 7 50 C6.01 50 5.02 50 4 50 C4.02094727 49.21351074 4.04189453 48.42702148 4.06347656 47.61669922 C4.14687753 44.03626402 4.19873776 40.45603358 4.25 36.875 C4.28351562 35.6375 4.31703125 34.4 4.3515625 33.125 C4.42555741 26.24347337 4.18927266 22.62933514 0 17 C-0.48145163 14.02342889 -0.3824185 11.12988133 -0.25 8.125 C-0.23195312 7.34125 -0.21390625 6.5575 -0.1953125 5.75 C-0.14855148 3.83279811 -0.07682003 1.91623285 0 0 Z " fill="#72AE9F" transform="translate(58,51)"/>
<path d="M0 0 C-0.0825 1.2375 -0.165 2.475 -0.25 3.75 C-0.2735201 7.07809389 -0.24064334 7.71423603 2 10.375 C2.66 10.91125 3.32 11.4475 4 12 C4 12.66 4 13.32 4 14 C3.43410156 14.12117188 2.86820313 14.24234375 2.28515625 14.3671875 C1.18494141 14.61855469 1.18494141 14.61855469 0.0625 14.875 C-1.03384766 15.11863281 -1.03384766 15.11863281 -2.15234375 15.3671875 C-4.20700294 15.82961523 -4.20700294 15.82961523 -5 18 C-5.99 14.37 -6.98 10.74 -8 7 C-12.455 7.495 -12.455 7.495 -17 8 C-16.01 5.69 -15.02 3.38 -14 1 C-13.67 1.66 -13.34 2.32 -13 3 C-12.31292969 2.7834375 -11.62585938 2.566875 -10.91796875 2.34375 C-10.01691406 2.0653125 -9.11585937 1.786875 -8.1875 1.5 C-7.29417969 1.2215625 -6.40085937 0.943125 -5.48046875 0.65625 C-3 0 -3 0 0 0 Z " fill="#1F7381" transform="translate(113,91)"/>
<path d="M0 0 C0.66 0 1.32 0 2 0 C2 3.96 2 7.92 2 12 C2.66 12 3.32 12 4 12 C4 8.04 4 4.08 4 0 C4.66 0 5.32 0 6 0 C6.08103404 2.91722548 6.14051081 5.83219516 6.1875 8.75 C6.21263672 9.575 6.23777344 10.4 6.26367188 11.25 C6.27333984 12.04921875 6.28300781 12.8484375 6.29296875 13.671875 C6.3086792 14.4050293 6.32438965 15.13818359 6.34057617 15.89355469 C6 18 6 18 4.5 19.84960938 C2.39527376 22.86693176 2.65902448 25.08586024 2.70703125 28.734375 C2.71669922 30.02988281 2.72636719 31.32539062 2.73632812 32.66015625 C2.76139217 34.02344354 2.78678698 35.38672479 2.8125 36.75 C2.82755482 38.12889184 2.84124183 39.50779935 2.85351562 40.88671875 C2.88888091 44.25820915 2.93824096 47.62890654 3 51 C2.67 51 2.34 51 2 51 C1.67 48.69 1.34 46.38 1 44 C0.67 44 0.34 44 0 44 C-0.16999071 39.66273134 -0.33024541 35.32523464 -0.48217773 30.98730469 C-0.53495797 29.51715853 -0.59022115 28.04709902 -0.64819336 26.57714844 C-0.99844031 17.64737393 -1.02344695 8.90046666 0 0 Z " fill="#217583" transform="translate(66,51)"/>
<path d="M0 0 C6.75 0.875 6.75 0.875 9 2 C9 2.66 9 3.32 9 4 C10.32 4 11.64 4 13 4 C13.33 5.32 13.66 6.64 14 8 C11.03 7.505 11.03 7.505 8 7 C7.87625 7.70125 7.7525 8.4025 7.625 9.125 C6.96161655 12.17656387 6.02788045 15.05340938 5 18 C4.67 17.34 4.34 16.68 4 16 C2.11235097 15.31527335 2.11235097 15.31527335 -0.0625 14.875 C-1.16271484 14.62363281 -1.16271484 14.62363281 -2.28515625 14.3671875 C-2.85105469 14.24601562 -3.41695312 14.12484375 -4 14 C-2.84826645 11.53199953 -1.95216435 9.95216435 0 8 C0.24212873 6.01871492 0.24212873 6.01871492 0.125 3.875 C0.08375 2.59625 0.0425 1.3175 0 0 Z " fill="#1F7381" transform="translate(32,91)"/>
<path d="M0 0 C0.66 0 1.32 0 2 0 C2 0.66 2 1.32 2 2 C2.845625 1.835 3.69125 1.67 4.5625 1.5 C9.26732771 0.81566142 13.45665192 0.48555064 18 2 C18.33 1.34 18.66 0.68 19 0 C19.33 1.65 19.66 3.3 20 5 C18.35 5 16.7 5 15 5 C14.67 6.32 14.34 7.64 14 9 C13.01 9 12.02 9 11 9 C10.34 8.01 9.68 7.02 9 6 C8.2575 6.165 7.515 6.33 6.75 6.5 C1.49590599 7.20054587 -3.70751749 7.07707499 -9 7 C-8.625 5.0625 -8.625 5.0625 -8 3 C-5.3333581 1.66667905 -3.83319697 2.32897967 -1 3 C-0.67 2.01 -0.34 1.02 0 0 Z " fill="#75ACB5" transform="translate(75,106)"/>
<path d="M0 0 C2.67863922 -0.21718696 4.41628148 -0.35440053 6.75 1.0625 C9.79962834 5.78942393 9.35791026 12.54186855 9 18 C8.52433594 18.53753906 8.04867187 19.07507813 7.55859375 19.62890625 C5.10362756 23.36365431 5.16526272 27.367975 4.8125 31.75 C4.73064453 32.63816406 4.64878906 33.52632812 4.56445312 34.44140625 C4.36470912 36.62684071 4.1769855 38.81262449 4 41 C3.67 41 3.34 41 3 41 C3 34.07 3 27.14 3 20 C3.66 19.67 4.32 19.34 5 19 C5.13536629 16.58145554 5.23420279 14.17050217 5.3125 11.75 C5.35439453 11.06808594 5.39628906 10.38617188 5.43945312 9.68359375 C5.54747138 7.387149 5.54747138 7.387149 5 4 C2.63871944 1.48294628 2.63871944 1.48294628 0 0 Z " fill="#24737F" transform="translate(78,50)"/>
<path d="M0 0 C0.33 0 0.66 0 1 0 C0.89300781 0.65226562 0.78601562 1.30453125 0.67578125 1.9765625 C-0.09625746 7.60497371 -0.25609196 11.05074022 3 16 C1.35 16.33 -0.3 16.66 -2 17 C-7.55580866 8.738041 -7.55580866 8.738041 -8 4 C-5.36 4.33 -2.72 4.66 0 5 C0 3.35 0 1.7 0 0 Z " fill="#97C49C" transform="translate(52,83)"/>
<path d="M0 0 C0.33 0 0.66 0 1 0 C1 2.31 1 4.62 1 7 C5.455 6.505 5.455 6.505 10 6 C8.68 8.97 7.36 11.94 6 15 C4.35 14.67 2.7 14.34 1 14 C0.04738513 9.23692563 -0.08333357 4.8333472 0 0 Z " fill="#93BE99" transform="translate(92,81)"/>
<path d="M0 0 C0.33 0.66 0.66 1.32 1 2 C2.65 1.67 4.3 1.34 6 1 C7.33333333 5 8.66666667 9 10 13 C10.66 13.66 11.32 14.32 12 15 C11.34 15 10.68 15 10 15 C9.67 15.66 9.34 16.32 9 17 C8.01 13.37 7.02 9.74 6 6 C1.545 6.495 1.545 6.495 -3 7 C-2.01 4.69 -1.02 2.38 0 0 Z " fill="#175A65" transform="translate(99,92)"/>
<path d="M0 0 C0.99 0.33 1.98 0.66 3 1 C2.67 1.99 2.34 2.98 2 4 C1.01 4 0.02 4 -1 4 C-1 5.32 -1 6.64 -1 8 C-1.99 8.33 -2.98 8.66 -4 9 C-5.1490712 10.9254644 -5.1490712 10.9254644 -5 13 C-7.475 12.01 -7.475 12.01 -10 11 C-8.73029441 8.46058882 -7.0389478 6.98231036 -5 5 C-4.0925 4.0925 -3.185 3.185 -2.25 2.25 C-1.5075 1.5075 -0.765 0.765 0 0 Z " fill="#3A494C" transform="translate(46,43)"/>
<path d="M0 0 C0.4125 0.45375 0.825 0.9075 1.25 1.375 C3.06408095 3.05950374 4.75285627 3.99265971 7 5 C5.75 6.5625 5.75 6.5625 4 8 C2.25 7.75 2.25 7.75 0 7 C-2.33094534 6.6503582 -4.66404762 6.31445513 -7 6 C-6.67 4.68 -6.34 3.36 -6 2 C-4.7934375 1.7834375 -4.7934375 1.7834375 -3.5625 1.5625 C-1.07896294 1.25864751 -1.07896294 1.25864751 0 0 Z " fill="#6AA5AF" transform="translate(57,104)"/>
<path d="M0 0 C0.33 0 0.66 0 1 0 C1 6.27 1 12.54 1 19 C0.01 19 -0.98 19 -2 19 C-2.05451714 16.95863605 -2.09302485 14.91684144 -2.125 12.875 C-2.14820313 11.73804687 -2.17140625 10.60109375 -2.1953125 9.4296875 C-1.99672109 5.94242233 -1.2524801 3.2446138 0 0 Z " fill="#7CB8A9" transform="translate(64,82)"/>
<path d="M0 0 C0.99 0.66 1.98 1.32 3 2 C3 2.66 3 3.32 3 4 C3.66 4 4.32 4 5 4 C5 4.66 5 5.32 5 6 C5.99 6.33 6.98 6.66 8 7 C7.67 8.98 7.34 10.96 7 13 C6.34 13 5.68 13 5 13 C4.13375 11.329375 4.13375 11.329375 3.25 9.625 C1.57739798 6.66807857 0.35017758 5.07684279 -3 4 C-3 3.34 -3 2.68 -3 2 C-2.01 1.34 -1.02 0.68 0 0 Z " fill="#4B585B" transform="translate(98,44)"/>
<path d="M0 0 C4.29 0.66 8.58 1.32 13 2 C13 3.32 13 4.64 13 6 C8.71 5.34 4.42 4.68 0 4 C0 2.68 0 1.36 0 0 Z " fill="#334346" transform="translate(74,33)"/>
<path d="M0 0 C0.66 0.33 1.32 0.66 2 1 C2 2.32 2 3.64 2 5 C0.35 5 -1.3 5 -3 5 C-3.33 6.32 -3.66 7.64 -4 9 C-4.99 9 -5.98 9 -7 9 C-7 7.68 -7 6.36 -7 5 C-6.34 5 -5.68 5 -5 5 C-5.33 3.68 -5.66 2.36 -6 1 C-3.03 1.495 -3.03 1.495 0 2 C0 1.34 0 0.68 0 0 Z " fill="#65A2AD" transform="translate(93,106)"/>
<path d="M0 0 C1.65 0 3.3 0 5 0 C5.33 1.32 5.66 2.64 6 4 C3.03 3.505 3.03 3.505 0 3 C-0.12375 3.70125 -0.2475 4.4025 -0.375 5.125 C-1.03838345 8.17656387 -1.97211955 11.05340938 -3 14 C-3.33 13.34 -3.66 12.68 -4 12 C-4.66 11.67 -5.32 11.34 -6 11 C-5.34 10.67 -4.68 10.34 -4 10 C-2.86897474 7.65961814 -2.86897474 7.65961814 -1.875 4.9375 C-1.52179687 4.01839844 -1.16859375 3.09929687 -0.8046875 2.15234375 C-0.40636719 1.08693359 -0.40636719 1.08693359 0 0 Z " fill="#175965" transform="translate(40,95)"/>
<path d="M0 0 C0.33 0 0.66 0 1 0 C1.66433182 9.34809779 2.1598655 18.62122392 2 28 C1.67 28 1.34 28 1 28 C0.67 25.69 0.34 23.38 0 21 C-0.33 21 -0.66 21 -1 21 C-0.67 14.07 -0.34 7.14 0 0 Z " fill="#1B5A64" transform="translate(67,74)"/>
<path d="M0 0 C0.66 0 1.32 0 2 0 C2.33 1.65 2.66 3.3 3 5 C-0.33333333 6.33333333 -3.66666667 7.66666667 -7 9 C-7.66 8.01 -8.32 7.02 -9 6 C-7.68 6 -6.36 6 -5 6 C-3.36323743 4.0399719 -3.36323743 4.0399719 -2 2 C-1.34 2 -0.68 2 0 2 C0 1.34 0 0.68 0 0 Z " fill="#455356" transform="translate(58,34)"/>
<path d="M0 0 C0.66 0.99 1.32 1.98 2 3 C1.67 3.99 1.34 4.98 1 6 C-2.33333333 6 -5.66666667 6 -9 6 C-8.34 4.68 -7.68 3.36 -7 2 C-4.03 2.495 -4.03 2.495 -1 3 C-0.67 2.01 -0.34 1.02 0 0 Z " fill="#7BB0B8" transform="translate(75,106)"/>
<path d="M0 0 C0.33 0.66 0.66 1.32 1 2 C1.66 2 2.32 2 3 2 C2.67 3.65 2.34 5.3 2 7 C-1.96 7 -5.92 7 -10 7 C-9.01 6.01 -8.02 5.02 -7 4 C-4.4375 4.3125 -4.4375 4.3125 -2 5 C-1.34 5 -0.68 5 0 5 C0 3.35 0 1.7 0 0 Z " fill="#4E94A0" transform="translate(76,106)"/>
<path d="M0 0 C1.98 0 3.96 0 6 0 C5.5 1.9375 5.5 1.9375 4 4 C1.30341548 4.68790422 -1.2017019 4.81946464 -4 5 C-3.01 4.67 -2.02 4.34 -1 4 C-0.26676204 1.98491642 -0.26676204 1.98491642 0 0 Z " fill="#96C6A0" transform="translate(91,96)"/>
<path d="M0 0 C1.98 0 3.96 0 6 0 C5.67 1.32 5.34 2.64 5 4 C3.68 4 2.36 4 1 4 C0.67 2.68 0.34 1.36 0 0 Z " fill="#70AD9E" transform="translate(109,74)"/>
<path d="M0 0 C1.98 0 3.96 0 6 0 C5.67 1.32 5.34 2.64 5 4 C3.68 4 2.36 4 1 4 C0.67 2.68 0.34 1.36 0 0 Z " fill="#70AD9E" transform="translate(30,74)"/>
<path d="M0 0 C1.98 0 3.96 0 6 0 C6.66 1.98 7.32 3.96 8 6 C7.01 6.33 6.02 6.66 5 7 C4.01 5.35 3.02 3.7 2 2 C1.01 2.495 1.01 2.495 0 3 C0 2.01 0 1.02 0 0 Z " fill="#4A575A" transform="translate(89,38)"/>
<path d="M0 0 C0.33 0.66 0.66 1.32 1 2 C2.65 1.67 4.3 1.34 6 1 C5.67 1.66 5.34 2.32 5 3 C3.68 3 2.36 3 1 3 C1 4.32 1 5.64 1 7 C-0.32 6.67 -1.64 6.34 -3 6 C-2.01 4.02 -1.02 2.04 0 0 Z " fill="#173C3F" transform="translate(99,92)"/>
<path d="M0 0 C1.32 0.66 2.64 1.32 4 2 C3.34 3.32 2.68 4.64 2 6 C1.01 5.67 0.02 5.34 -1 5 C-1.33 4.01 -1.66 3.02 -2 2 C-1.34 1.34 -0.68 0.68 0 0 Z " fill="#54716D" transform="translate(97,74)"/>
<path d="M0 0 C4.44936709 -0.36075949 4.44936709 -0.36075949 6.8125 1.1875 C8.36678206 3.55982525 8.22537188 5.22041345 8 8 C7.4225 7.236875 6.845 6.47375 6.25 5.6875 C4.28296907 3.33799083 2.51523256 1.70676495 0 0 Z " fill="#266E77" transform="translate(78,50)"/>
<path d="M0 0 C2.31 0.33 4.62 0.66 7 1 C6.01 2.32 5.02 3.64 4 5 C1.83125748 4.49396008 0.00032373 4.00016187 -2 3 C-1.34 2.01 -0.68 1.02 0 0 Z " fill="#7CB0B9" transform="translate(57,107)"/>
<path d="M0 0 C0.99 0.99 1.98 1.98 3 3 C2.01 3.99 1.02 4.98 0 6 C-0.99 5.01 -1.98 4.02 -3 3 C-2.01 2.01 -1.02 1.02 0 0 Z " fill="#587772" transform="translate(47,74)"/>
<path d="M0 0 C0.66 0.33 1.32 0.66 2 1 C1.67 2.98 1.34 4.96 1 7 C0.34 7 -0.32 7 -1 7 C-1.66 5.35 -2.32 3.7 -3 2 C-2.01 1.34 -1.02 0.68 0 0 Z " fill="#3B494C" transform="translate(104,50)"/>
<path d="M0 0 C2.31 0.33 4.62 0.66 7 1 C6.01 1.495 6.01 1.495 5 2 C5 2.66 5 3.32 5 4 C3.35 4 1.7 4 0 4 C0 2.68 0 1.36 0 0 Z " fill="#3A4A4D" transform="translate(74,33)"/>
<path d="M0 0 C0.99 0.33 1.98 0.66 3 1 C3 2.98 3 4.96 3 7 C1.68 7.33 0.36 7.66 -1 8 C-1 6.68 -1 5.36 -1 4 C-0.34 4 0.32 4 1 4 C0.67 2.68 0.34 1.36 0 0 Z " fill="#5196A2" transform="translate(87,107)"/>
<path d="M0 0 C3 3.625 3 3.625 3 7 C2.01 6.67 1.02 6.34 0 6 C0 5.01 0 4.02 0 3 C-1.32 3 -2.64 3 -4 3 C-3.67 2.34 -3.34 1.68 -3 1 C-2.01 1.33 -1.02 1.66 0 2 C0 1.34 0 0.68 0 0 Z " fill="#13383C" transform="translate(45,92)"/>
<path d="M0 0 C1.98 0 3.96 0 6 0 C5.67 0.99 5.34 1.98 5 3 C3.35 3.33 1.7 3.66 0 4 C0 2.68 0 1.36 0 0 Z " fill="#4B5759" transform="translate(67,33)"/>
<path d="M0 0 C0.99 0.33 1.98 0.66 3 1 C2.67 1.99 2.34 2.98 2 4 C1.01 4 0.02 4 -1 4 C-1.33 4.66 -1.66 5.32 -2 6 C-2.33 4.68 -2.66 3.36 -3 2 C-2.01 1.34 -1.02 0.68 0 0 Z " fill="#414F52" transform="translate(46,43)"/>
</svg>
